<?xml version="1.0" encoding="utf-8"?>
<!-- Generator: Adobe Illustrator 21.0.0, SVG Export Plug-In . SVG Version: 6.00 Build 0)  -->
<svg version="1.1" xmlns="http://www.w3.org/2000/svg" xmlns:xlink="http://www.w3.org/1999/xlink" x="0px" y="0px" width="243px"
	 height="175px" viewBox="0 0 243 175" enable-background="new 0 0 243 175" xml:space="preserve">
<g id="Hintergrund">
	<rect x="0" fill="#FFFFFF" width="243" height="175"/>
</g>
<g id="Foerderzusatz">
	<g>
		<path d="M28.6,22.3c-0.2-0.1-0.7-0.3-1.3-0.3c-1.3,0-2.5,0.8-2.5,3c0,2.1,1,3.1,2.4,3.1c0.5,0,0.9-0.1,1.2-0.2v-2.1l-0.6-0.1
			c-0.1,0-0.1-0.1-0.1-0.1c0-0.1,0.1-0.2,0.1-0.3h2.4c0,0,0,0.1,0,0.1c0,0.2-0.1,0.3-0.4,0.4l-0.2,0.1V28c-0.3,0.3-1.1,0.8-2.6,0.8
			c-1.8,0-3.3-1.1-3.3-3.7c0-2.7,2-3.8,3.8-3.8c1.1,0,1.7,0.3,2,0.5c0,0.3,0.1,1,0.1,1c0,0.3-0.1,0.5-0.4,0.5c-0.1,0-0.2,0-0.2,0
			L28.6,22.3z"/>
		<path d="M31.9,26.2c0,1.3,0.6,1.9,1.5,1.9c0.7,0,1-0.3,1.3-0.5c0.1,0.1,0.2,0.3,0.2,0.4c0,0.3-0.7,0.9-1.9,0.9
			c-1.3,0-2.3-0.7-2.3-2.6s1.1-2.8,2.3-2.8c1.2,0,1.8,0.7,1.8,1.8c0,0.3-0.1,0.6-0.1,0.9H31.9z M33.7,25.7c0-0.1,0.1-0.3,0.1-0.5
			c0-0.6-0.2-1.1-0.8-1.1c-0.6,0-1,0.5-1.1,1.5H33.7z"/>
		<path d="M38.7,24.2h-1.3v3.9l0.7,0.1c0.1,0,0.1,0.1,0.1,0.1c0,0.1-0.1,0.3-0.1,0.3h-2.5c0,0,0-0.1,0-0.1c0-0.2,0.1-0.3,0.3-0.3
			l0.4-0.1v-3.9h-0.8c0,0,0-0.1,0-0.1c0-0.2,0.1-0.3,0.3-0.4l0.5-0.1v-0.1c0-1.7,1-2.5,1.9-2.5c0.5,0,0.7,0.2,0.7,0.6
			c0,0.3-0.2,0.4-0.3,0.5c-0.1-0.1-0.4-0.3-0.7-0.3c-0.5,0-0.6,0.3-0.6,0.9c0,0.3,0,1,0,1h1.4L38.7,24.2z"/>
		<path d="M44.1,26.1c0,1.8-1.3,2.7-2.6,2.7c-1.3,0-2.4-0.8-2.4-2.6c0-1.8,1.3-2.7,2.6-2.7C43,23.5,44.1,24.3,44.1,26.1z M40.7,22.8
			c-0.3,0-0.6-0.2-0.6-0.6c0-0.4,0.3-0.6,0.6-0.6c0.3,0,0.6,0.2,0.6,0.6C41.2,22.6,41,22.8,40.7,22.8z M40.3,26.2c0,1.4,0.6,2,1.3,2
			c0.8,0,1.4-0.6,1.4-2s-0.6-2.1-1.4-2.1C40.8,24.2,40.3,24.8,40.3,26.2z M42.6,22.8c-0.3,0-0.6-0.2-0.6-0.6c0-0.4,0.2-0.6,0.6-0.6
			c0.3,0,0.6,0.2,0.6,0.6C43.1,22.6,42.9,22.8,42.6,22.8z"/>
		<path d="M46.5,24.5L46.5,24.5c0.3-0.4,0.6-1,1.3-1c0.5,0,0.7,0.2,0.7,0.6c0,0.2-0.1,0.4-0.2,0.5c-0.1,0-0.3-0.2-0.7-0.2
			c-0.6,0-0.9,0.2-1.1,0.5v3.2l0.8,0.1c0.1,0,0.1,0.1,0.1,0.1c0,0.1-0.1,0.3-0.1,0.3h-2.5c0,0,0-0.1,0-0.1c0-0.2,0.1-0.3,0.3-0.3
			l0.4-0.1v-3.9l-0.7-0.1c0,0,0-0.1,0-0.1c0-0.2,0.1-0.3,0.4-0.3l1.4-0.1L46.5,24.5z"/>
		<path d="M53.5,28.1l0.8,0.1c0,0,0,0,0,0.1c0,0.2-0.1,0.3-0.4,0.3l-1.4,0.1v-0.7h0c-0.2,0.3-0.7,0.7-1.5,0.7c-1,0-2-0.7-2-2.5
			c0-2,1.4-2.8,2.7-2.8c0.3,0,0.6,0.1,0.7,0.1v-1.8l-0.7-0.1c0,0,0-0.1,0-0.1c0-0.2,0.1-0.3,0.4-0.3l1.4-0.1V28.1z M52.4,24.5
			c-0.2-0.1-0.4-0.3-0.9-0.3c-0.9,0-1.5,0.6-1.5,2c0,1.4,0.6,1.9,1.3,1.9c0.6,0,0.9-0.3,1.1-0.4V24.5z"/>
		<path d="M56,26.2c0,1.3,0.6,1.9,1.5,1.9c0.7,0,1-0.3,1.3-0.5c0.1,0.1,0.2,0.3,0.2,0.4c0,0.3-0.7,0.9-1.9,0.9
			c-1.3,0-2.3-0.7-2.3-2.6s1.1-2.8,2.3-2.8c1.2,0,1.8,0.7,1.8,1.8c0,0.3-0.1,0.6-0.1,0.9H56z M57.8,25.7c0-0.1,0.1-0.3,0.1-0.5
			c0-0.6-0.2-1.1-0.8-1.1c-0.6,0-1,0.5-1.1,1.5H57.8z"/>
		<path d="M61.4,24.5L61.4,24.5c0.3-0.4,0.6-1,1.3-1c0.5,0,0.7,0.2,0.7,0.6c0,0.2-0.1,0.4-0.2,0.5c-0.1,0-0.3-0.2-0.7-0.2
			c-0.6,0-0.9,0.2-1.1,0.5v3.2l0.8,0.1c0.1,0,0.1,0.1,0.1,0.1c0,0.1-0.1,0.3-0.1,0.3h-2.5c0,0,0-0.1,0-0.1c0-0.2,0.1-0.3,0.3-0.3
			l0.4-0.1v-3.9l-0.7-0.1c0,0,0-0.1,0-0.1c0-0.2,0.1-0.3,0.4-0.3l1.4-0.1L61.4,24.5z"/>
		<path d="M67,24.2h-1.4v3.1c0,0.5,0.1,0.9,0.7,0.9c0.4,0,0.7-0.2,0.8-0.3c0.1,0.1,0.1,0.2,0.1,0.3c0,0.1-0.4,0.6-1.3,0.6
			c-1,0-1.3-0.6-1.3-1.4v-3.3h-0.8c0,0,0-0.1,0-0.1c0-0.2,0.1-0.3,0.3-0.4l0.5-0.1l0.2-1.4h0.8v1.4h1.6L67,24.2z"/>
		<path d="M74.4,28.1l0.8,0.1c0,0,0,0,0,0.1c0,0.2-0.1,0.3-0.4,0.3l-1.4,0.1v-0.7h0c-0.2,0.3-0.7,0.7-1.5,0.7c-1,0-2-0.7-2-2.5
			c0-2,1.4-2.8,2.7-2.8c0.3,0,0.6,0.1,0.7,0.1v-1.8l-0.7-0.1c0,0,0-0.1,0-0.1c0-0.2,0.1-0.3,0.4-0.3l1.4-0.1V28.1z M73.3,24.5
			c-0.2-0.1-0.4-0.3-0.9-0.3c-0.9,0-1.5,0.6-1.5,2c0,1.4,0.6,1.9,1.3,1.9c0.6,0,0.9-0.3,1.1-0.4V24.5z"/>
		<path d="M80.4,28.1l0.8,0.1c0,0,0,0,0,0.1c0,0.2-0.1,0.3-0.4,0.3l-1.4,0.1v-0.7h0c-0.2,0.2-0.6,0.8-1.6,0.8
			c-1.1,0-1.6-0.7-1.6-1.9v-2.7l-0.7-0.1c0,0,0-0.1,0-0.1c0-0.2,0.1-0.3,0.4-0.3l1.4-0.1v3.3c0,1,0.5,1.2,1,1.2
			c0.5,0,0.9-0.2,1.1-0.5v-3.3l-0.7-0.1c0,0,0-0.1,0-0.1c0-0.2,0.1-0.3,0.4-0.3l1.4-0.1V28.1z"/>
		<path d="M83.4,24.5L83.4,24.5c0.3-0.4,0.6-1,1.3-1c0.5,0,0.7,0.2,0.7,0.6c0,0.2-0.1,0.4-0.2,0.5c-0.1,0-0.3-0.2-0.7-0.2
			c-0.6,0-0.9,0.2-1.1,0.5v3.2l0.8,0.1c0.1,0,0.1,0.1,0.1,0.1c0,0.1-0.1,0.3-0.1,0.3h-2.5c0,0,0-0.1,0-0.1c0-0.2,0.1-0.3,0.3-0.3
			l0.4-0.1v-3.9l-0.7-0.1c0,0,0-0.1,0-0.1c0-0.2,0.1-0.3,0.4-0.3l1.4-0.1L83.4,24.5z"/>
		<path d="M88.3,24.2c-0.7,0-1.3,0.5-1.3,1.9c0,1.3,0.5,2.1,1.5,2.1c0.7,0,1-0.3,1.2-0.5c0.1,0.1,0.2,0.3,0.2,0.4
			c0,0.3-0.6,0.9-1.7,0.9c-1.4,0-2.2-0.9-2.2-2.6c0-1.8,1.2-2.7,2.6-2.7c1.2,0,1.4,0.6,1.4,0.9c0,0.3-0.1,0.5-0.5,0.6
			C89.2,24.7,89,24.2,88.3,24.2z"/>
		<path d="M92.2,24.3L92.2,24.3c0.2-0.3,0.7-0.8,1.6-0.8c1,0,1.6,0.6,1.6,1.8v2.8l0.6,0.1c0.1,0,0.1,0.1,0.1,0.1
			c0,0.1-0.1,0.3-0.1,0.3h-2.4c0,0,0-0.1,0-0.1c0-0.2,0.1-0.3,0.3-0.3l0.3-0.1v-2.7c0-0.9-0.5-1.2-1-1.2c-0.7,0-1,0.3-1.2,0.5v3.3
			l0.6,0.1c0.1,0,0.1,0.1,0.1,0.1c0,0.1-0.1,0.3-0.1,0.3h-2.4c0,0,0-0.1,0-0.1c0-0.2,0.1-0.3,0.3-0.3l0.4-0.1v-6.4l-0.7-0.1
			c0,0,0-0.1,0-0.1c0-0.2,0.1-0.3,0.4-0.3l1.4-0.1V24.3z"/>
		<path d="M97.6,24.8c-0.4,0-0.7-0.3-0.7-0.6c0-0.4,0.3-0.7,0.7-0.7c0.4,0,0.7,0.3,0.7,0.7C98.2,24.6,97.9,24.8,97.6,24.8z
			 M97.6,28.9c-0.4,0-0.7-0.3-0.7-0.6c0-0.4,0.3-0.7,0.7-0.7c0.4,0,0.7,0.3,0.7,0.7C98.2,28.6,97.9,28.9,97.6,28.9z"/>
	</g>
	<g>
		<path d="M27.3,139.8c0,0.4,0.2,0.5,0.3,0.5c0.2,0,0.4-0.1,0.4-0.2c0.1,0.1,0.1,0.2,0.1,0.3c0,0.1-0.3,0.5-1,0.5
			c-0.5,0-0.8-0.2-0.9-0.7h0c-0.1,0.2-0.5,0.8-1.4,0.8c-0.8,0-1.4-0.5-1.4-1.4c0-1.1,1.2-1.5,2.4-1.5h0.3v-0.5c0-1-0.3-1.3-0.9-1.3
			c-0.2,0-0.5,0.1-0.5,0.1c-0.1,0.2-0.2,0.6-0.2,0.9c0,0-0.2,0-0.2,0c-0.4,0-0.6-0.2-0.6-0.5c0-0.7,0.9-1.1,1.8-1.1
			c1.2,0,1.7,0.6,1.7,1.8V139.8z M26,138.6c-0.8,0-1.3,0.3-1.3,0.9c0,0.4,0.3,0.7,0.7,0.7s0.8-0.3,0.9-0.5v-1.2L26,138.6z"/>
		<path d="M33.3,140.3l0.8,0.1c0,0,0,0,0,0.1c0,0.2-0.1,0.3-0.4,0.3l-1.4,0.1v-0.7h0c-0.2,0.2-0.6,0.8-1.6,0.8
			c-1.1,0-1.6-0.7-1.6-1.9v-2.7l-0.7-0.1c0,0,0-0.1,0-0.1c0-0.2,0.1-0.3,0.4-0.3l1.4-0.1v3.3c0,1,0.5,1.2,1,1.2
			c0.5,0,0.9-0.2,1.1-0.5v-3.3l-0.7-0.1c0,0,0-0.1,0-0.1c0-0.2,0.1-0.3,0.4-0.3l1.4-0.1V140.3z"/>
		<path d="M37.6,136.4h-1.3v3.9l0.7,0.1c0.1,0,0.1,0.1,0.1,0.1c0,0.1-0.1,0.3-0.1,0.3h-2.5c0,0,0-0.1,0-0.1c0-0.2,0.1-0.3,0.3-0.3
			l0.4-0.1v-3.9h-0.8c0,0,0-0.1,0-0.1c0-0.2,0.1-0.3,0.3-0.4l0.5-0.1v-0.1c0-1.7,1-2.5,1.9-2.5c0.5,0,0.7,0.2,0.7,0.6
			c0,0.3-0.2,0.4-0.3,0.5c-0.1-0.1-0.4-0.3-0.7-0.3c-0.5,0-0.6,0.3-0.6,0.9c0,0.3,0,1,0,1h1.4L37.6,136.4z"/>
		<path d="M42.9,136.4H42c0.2,0.3,0.3,0.6,0.3,1c0,1.1-0.9,1.7-2.1,1.7c-0.2,0-0.3,0-0.5-0.1c-0.1,0.1-0.3,0.2-0.3,0.5
			c0,0.3,0.2,0.4,0.5,0.4h1.2c1,0,1.5,0.4,1.5,1.2c0,1-1,2-2.8,2c-1.3,0-1.9-0.5-1.9-1.2c0-0.7,0.6-1.1,1-1.2v0
			c-0.3-0.1-0.4-0.4-0.4-0.7c0-0.6,0.6-0.9,0.8-1v0c-0.6-0.3-1-0.8-1-1.6c0-1.1,0.9-1.7,2-1.7c0.3,0,0.6,0,0.8,0.1H43L42.9,136.4z
			 M39.9,140.8c-0.1,0-0.3,0-0.4,0c-0.3,0.2-0.5,0.4-0.5,0.8c0,0.5,0.3,0.9,1.1,0.9c1,0,1.6-0.5,1.6-1c0-0.4-0.2-0.6-0.8-0.6H39.9z
			 M39.4,137.4c0,0.8,0.4,1.2,0.9,1.2c0.6,0,1-0.3,1-1.2c0-0.7-0.4-1.1-1-1.1S39.4,136.6,39.4,137.4z"/>
		<path d="M45.1,136.7L45.1,136.7c0.3-0.4,0.6-1,1.3-1c0.5,0,0.7,0.2,0.7,0.6c0,0.2-0.1,0.4-0.2,0.5c-0.1,0-0.3-0.2-0.7-0.2
			c-0.6,0-0.9,0.2-1.1,0.5v3.2l0.8,0.1c0.1,0,0.1,0.1,0.1,0.1c0,0.1-0.1,0.3-0.1,0.3h-2.5c0,0,0-0.1,0-0.1c0-0.2,0.1-0.3,0.3-0.3
			l0.4-0.1v-3.9l-0.7-0.1c0,0,0-0.1,0-0.1c0-0.2,0.1-0.3,0.4-0.3l1.4-0.1L45.1,136.7z"/>
		<path d="M52.4,140.3l0.8,0.1c0,0,0,0,0,0.1c0,0.2-0.1,0.3-0.4,0.3l-1.4,0.1v-0.7h0c-0.2,0.2-0.6,0.8-1.6,0.8
			c-1.1,0-1.6-0.7-1.6-1.9v-2.7l-0.7-0.1c0,0,0-0.1,0-0.1c0-0.2,0.1-0.3,0.4-0.3l1.4-0.1v3.3c0,1,0.5,1.2,1,1.2
			c0.5,0,0.9-0.2,1.1-0.5v-3.3l-0.7-0.1c0,0,0-0.1,0-0.1c0-0.2,0.1-0.3,0.4-0.3l1.4-0.1V140.3z"/>
		<path d="M58.7,140.3l0.6,0.1c0.1,0,0.1,0.1,0.1,0.1c0,0.1-0.1,0.3-0.1,0.3H57c0,0,0-0.1,0-0.1c0-0.2,0.1-0.3,0.3-0.3l0.3-0.1v-2.7
			c0-0.9-0.5-1.2-1-1.2c-0.6,0-1,0.3-1.2,0.5v3.4l0.6,0.1c0.1,0,0.1,0.1,0.1,0.1c0,0.1-0.1,0.3-0.1,0.3h-2.4c0,0,0-0.1,0-0.1
			c0-0.2,0.1-0.3,0.3-0.3l0.4-0.1v-3.9l-0.7-0.1c0,0,0-0.1,0-0.1c0-0.2,0.1-0.3,0.4-0.3l1.4-0.1l-0.1,0.7h0c0.3-0.3,0.8-0.8,1.7-0.8
			c1,0,1.6,0.7,1.6,1.8V140.3z"/>
		<path d="M64.5,140.3l0.8,0.1c0,0,0,0,0,0.1c0,0.2-0.1,0.3-0.4,0.3l-1.4,0.1v-0.7h0c-0.2,0.3-0.7,0.7-1.5,0.7c-1,0-2-0.7-2-2.5
			c0-2,1.4-2.8,2.7-2.8c0.3,0,0.6,0.1,0.7,0.1v-1.8l-0.7-0.1c0,0,0-0.1,0-0.1c0-0.2,0.1-0.3,0.4-0.3l1.4-0.1V140.3z M63.4,136.6
			c-0.2-0.1-0.4-0.3-0.9-0.3c-0.9,0-1.5,0.6-1.5,2c0,1.4,0.6,1.9,1.3,1.9c0.6,0,0.9-0.3,1.1-0.4V136.6z"/>
		<path d="M69.2,138.4c0,1.3,0.6,1.9,1.5,1.9c0.7,0,1-0.3,1.3-0.5c0.1,0.1,0.2,0.3,0.2,0.4c0,0.3-0.7,0.9-1.9,0.9
			c-1.3,0-2.3-0.7-2.3-2.6c0-1.8,1.1-2.8,2.3-2.8c1.2,0,1.8,0.7,1.8,1.8c0,0.3-0.1,0.6-0.1,0.9H69.2z M71,137.8
			c0-0.1,0.1-0.3,0.1-0.5c0-0.6-0.2-1.1-0.8-1.1c-0.6,0-1,0.5-1.1,1.5H71z"/>
		<path d="M74.7,140.3l0.6,0.1c0.1,0,0.1,0.1,0.1,0.1c0,0.1-0.1,0.3-0.1,0.3h-2.4c0,0,0-0.1,0-0.1c0-0.2,0.1-0.3,0.3-0.3l0.4-0.1
			v-3.9l-0.7-0.1c0,0,0-0.1,0-0.1c0-0.2,0.1-0.3,0.4-0.3l1.4-0.1V140.3z M74.2,134.7c-0.4,0-0.7-0.3-0.7-0.7c0-0.4,0.3-0.7,0.7-0.7
			c0.4,0,0.7,0.3,0.7,0.7C74.8,134.5,74.5,134.7,74.2,134.7z"/>
		<path d="M81,140.3l0.6,0.1c0.1,0,0.1,0.1,0.1,0.1c0,0.1-0.1,0.3-0.1,0.3h-2.4c0,0,0-0.1,0-0.1c0-0.2,0.1-0.3,0.3-0.3l0.3-0.1v-2.7
			c0-0.9-0.5-1.2-1-1.2c-0.6,0-1,0.3-1.2,0.5v3.4l0.6,0.1c0.1,0,0.1,0.1,0.1,0.1c0,0.1-0.1,0.3-0.1,0.3H76c0,0,0-0.1,0-0.1
			c0-0.2,0.1-0.3,0.3-0.3l0.4-0.1v-3.9l-0.7-0.1c0,0,0-0.1,0-0.1c0-0.2,0.1-0.3,0.4-0.3l1.4-0.1l-0.1,0.7h0c0.3-0.3,0.8-0.8,1.7-0.8
			c1,0,1.6,0.7,1.6,1.8V140.3z"/>
		<path d="M83.4,138.4c0,1.3,0.6,1.9,1.5,1.9c0.7,0,1-0.3,1.3-0.5c0.1,0.1,0.2,0.3,0.2,0.4c0,0.3-0.7,0.9-1.9,0.9
			c-1.3,0-2.3-0.7-2.3-2.6c0-1.8,1.1-2.8,2.3-2.8c1.2,0,1.8,0.7,1.8,1.8c0,0.3-0.1,0.6-0.1,0.9H83.4z M85.3,137.8
			c0-0.1,0.1-0.3,0.1-0.5c0-0.6-0.2-1.1-0.8-1.1c-0.6,0-1,0.5-1.1,1.5H85.3z"/>
		<path d="M89.7,136.5c-0.1-0.1-0.4-0.2-0.7-0.2c-0.3,0-0.7,0.1-0.7,0.6c0,0.5,0.5,0.7,1,1c0.6,0.4,1.3,0.8,1.3,1.6
			c0,0.9-0.7,1.5-1.9,1.5c-0.6,0-1.1-0.2-1.3-0.3c0-0.3-0.1-0.5-0.1-0.8c0-0.4,0.1-0.6,0.4-0.6c0.1,0,0.1,0,0.1,0l0.2,0.9
			c0.1,0.1,0.4,0.2,0.7,0.2c0.5,0,0.8-0.2,0.8-0.6c0-0.5-0.5-0.7-1-1c-0.6-0.4-1.3-0.8-1.3-1.7c0-0.8,0.7-1.4,1.7-1.4
			c0.6,0,1,0.2,1.2,0.4c0,0.1,0,0.4,0,0.6c0,0.4-0.1,0.6-0.5,0.6c-0.1,0-0.1,0-0.1,0L89.7,136.5z"/>
		<path d="M97.5,137.1L97.5,137.1c1,0.2,1.7,0.8,1.7,1.7c0,1.2-1,2-2.9,2h-2.7c0,0,0-0.1,0-0.1c0-0.2,0.1-0.3,0.4-0.4l0.4-0.1v-6.1
			l-0.6-0.1c-0.1,0-0.1-0.1-0.1-0.1c0-0.1,0.1-0.2,0.1-0.3h2.5c1.9,0,2.8,0.7,2.8,1.8C99,136.5,98.4,136.9,97.5,137.1z M96.1,134.3
			h-0.6v2.6h0.6c1.2,0,1.7-0.6,1.7-1.3C97.8,134.7,97.3,134.3,96.1,134.3z M96.3,137.5h-0.7v2.7h0.6c1.2,0,1.8-0.6,1.8-1.4
			C98,138.1,97.4,137.5,96.3,137.5z"/>
		<path d="M101.2,138.4c0,1.3,0.6,1.9,1.5,1.9c0.7,0,1-0.3,1.3-0.5c0.1,0.1,0.2,0.3,0.2,0.4c0,0.3-0.7,0.9-1.9,0.9
			c-1.3,0-2.3-0.7-2.3-2.6c0-1.8,1.1-2.8,2.3-2.8c1.2,0,1.8,0.7,1.8,1.8c0,0.3-0.1,0.6-0.1,0.9H101.2z M103.1,137.8
			c0-0.1,0.1-0.3,0.1-0.5c0-0.6-0.2-1.1-0.8-1.1c-0.6,0-1,0.5-1.1,1.5H103.1z"/>
		<path d="M107.5,136.5c-0.1-0.1-0.4-0.2-0.7-0.2c-0.3,0-0.7,0.1-0.7,0.6c0,0.5,0.5,0.7,1,1c0.6,0.4,1.3,0.8,1.3,1.6
			c0,0.9-0.7,1.5-1.9,1.5c-0.6,0-1.1-0.2-1.3-0.3c0-0.3-0.1-0.5-0.1-0.8c0-0.4,0.1-0.6,0.4-0.6c0.1,0,0.1,0,0.1,0l0.2,0.9
			c0.1,0.1,0.4,0.2,0.7,0.2c0.5,0,0.8-0.2,0.8-0.6c0-0.5-0.5-0.7-1-1c-0.6-0.4-1.3-0.8-1.3-1.7c0-0.8,0.7-1.4,1.7-1.4
			c0.6,0,1,0.2,1.2,0.4c0,0.1,0,0.4,0,0.6c0,0.4-0.1,0.6-0.5,0.6c-0.1,0-0.1,0-0.1,0L107.5,136.5z"/>
		<path d="M111.6,136.3c-0.7,0-1.3,0.5-1.3,1.9c0,1.3,0.5,2.1,1.5,2.1c0.7,0,1-0.3,1.2-0.5c0.1,0.1,0.2,0.3,0.2,0.4
			c0,0.3-0.6,0.9-1.7,0.9c-1.4,0-2.2-0.9-2.2-2.6c0-1.8,1.2-2.7,2.6-2.7c1.2,0,1.4,0.6,1.4,0.9c0,0.3-0.1,0.5-0.5,0.6
			C112.6,136.8,112.3,136.3,111.6,136.3z"/>
		<path d="M115.5,136.4L115.5,136.4c0.2-0.3,0.7-0.8,1.6-0.8c1,0,1.6,0.6,1.6,1.8v2.8l0.6,0.1c0.1,0,0.1,0.1,0.1,0.1
			c0,0.1-0.1,0.3-0.1,0.3h-2.4c0,0,0-0.1,0-0.1c0-0.2,0.1-0.3,0.3-0.3l0.3-0.1v-2.7c0-0.9-0.5-1.2-1-1.2c-0.7,0-1,0.3-1.2,0.5v3.3
			l0.6,0.1c0.1,0,0.1,0.1,0.1,0.1c0,0.1-0.1,0.3-0.1,0.3h-2.4c0,0,0-0.1,0-0.1c0-0.2,0.1-0.3,0.3-0.3l0.4-0.1v-6.4l-0.7-0.1
			c0,0,0-0.1,0-0.1c0-0.2,0.1-0.3,0.4-0.3l1.4-0.1V136.4z"/>
		<path d="M121.7,140.3l0.6,0.1c0.1,0,0.1,0.1,0.1,0.1c0,0.1-0.1,0.3-0.1,0.3H120c0,0,0-0.1,0-0.1c0-0.2,0.1-0.3,0.3-0.3l0.4-0.1
			v-6.4l-0.7-0.1c0,0,0-0.1,0-0.1c0-0.2,0.1-0.3,0.4-0.3l1.4-0.1V140.3z"/>
		<path d="M127.8,140.3l0.8,0.1c0,0,0,0,0,0.1c0,0.2-0.1,0.3-0.4,0.3l-1.4,0.1v-0.7h0c-0.2,0.2-0.6,0.8-1.6,0.8
			c-1.1,0-1.6-0.7-1.6-1.9v-2.7l-0.7-0.1c0,0,0-0.1,0-0.1c0-0.2,0.1-0.3,0.4-0.3l1.4-0.1v3.3c0,1,0.5,1.2,1,1.2
			c0.5,0,0.9-0.2,1.1-0.5v-3.3l-0.7-0.1c0,0,0-0.1,0-0.1c0-0.2,0.1-0.3,0.4-0.3l1.4-0.1V140.3z"/>
		<path d="M131.6,136.5c-0.1-0.1-0.4-0.2-0.7-0.2c-0.3,0-0.7,0.1-0.7,0.6c0,0.5,0.5,0.7,1,1c0.6,0.4,1.3,0.8,1.3,1.6
			c0,0.9-0.7,1.5-1.9,1.5c-0.6,0-1.1-0.2-1.3-0.3c0-0.3-0.1-0.5-0.1-0.8c0-0.4,0.1-0.6,0.4-0.6c0.1,0,0.1,0,0.1,0l0.2,0.9
			c0.1,0.1,0.4,0.2,0.7,0.2c0.5,0,0.8-0.2,0.8-0.6c0-0.5-0.5-0.7-1-1c-0.6-0.4-1.3-0.8-1.3-1.7c0-0.8,0.7-1.4,1.7-1.4
			c0.6,0,1,0.2,1.2,0.4c0,0.1,0,0.4,0,0.6c0,0.4-0.1,0.6-0.5,0.6c-0.1,0-0.1,0-0.1,0L131.6,136.5z"/>
		<path d="M135.7,136.5c-0.1-0.1-0.4-0.2-0.7-0.2c-0.3,0-0.7,0.1-0.7,0.6c0,0.5,0.5,0.7,1,1c0.6,0.4,1.3,0.8,1.3,1.6
			c0,0.9-0.7,1.5-1.9,1.5c-0.6,0-1.1-0.2-1.3-0.3c0-0.3-0.1-0.5-0.1-0.8c0-0.4,0.1-0.6,0.4-0.6c0.1,0,0.1,0,0.1,0l0.2,0.9
			c0.1,0.1,0.4,0.2,0.7,0.2c0.5,0,0.8-0.2,0.8-0.6c0-0.5-0.5-0.7-1-1c-0.6-0.4-1.3-0.8-1.3-1.7c0-0.8,0.7-1.4,1.7-1.4
			c0.6,0,1,0.2,1.2,0.4c0,0.1,0,0.4,0,0.6c0,0.4-0.1,0.6-0.5,0.6c-0.1,0-0.1,0-0.1,0L135.7,136.5z"/>
		<path d="M138.6,138.4c0,1.3,0.6,1.9,1.5,1.9c0.7,0,1-0.3,1.3-0.5c0.1,0.1,0.2,0.3,0.2,0.4c0,0.3-0.7,0.9-1.9,0.9
			c-1.3,0-2.3-0.7-2.3-2.6c0-1.8,1.1-2.8,2.3-2.8c1.2,0,1.8,0.7,1.8,1.8c0,0.3-0.1,0.6-0.1,0.9H138.6z M140.4,137.8
			c0-0.1,0.1-0.3,0.1-0.5c0-0.6-0.2-1.1-0.8-1.1c-0.6,0-1,0.5-1.1,1.5H140.4z"/>
		<path d="M144.8,136.5c-0.1-0.1-0.4-0.2-0.7-0.2c-0.3,0-0.7,0.1-0.7,0.6c0,0.5,0.5,0.7,1,1c0.6,0.4,1.3,0.8,1.3,1.6
			c0,0.9-0.7,1.5-1.9,1.5c-0.6,0-1.1-0.2-1.3-0.3c0-0.3-0.1-0.5-0.1-0.8c0-0.4,0.1-0.6,0.4-0.6c0.1,0,0.1,0,0.1,0l0.2,0.9
			c0.1,0.1,0.4,0.2,0.7,0.2c0.5,0,0.8-0.2,0.8-0.6c0-0.5-0.5-0.7-1-1c-0.6-0.4-1.3-0.8-1.3-1.7c0-0.8,0.7-1.4,1.7-1.4
			c0.6,0,1,0.2,1.2,0.4c0,0.1,0,0.4,0,0.6c0,0.4-0.1,0.6-0.5,0.6c-0.1,0-0.1,0-0.1,0L144.8,136.5z"/>
		<path d="M28.2,152.3l0.8,0.1c0,0,0,0,0,0.1c0,0.2-0.1,0.3-0.4,0.3l-1.4,0.1v-0.7h0c-0.2,0.3-0.7,0.7-1.5,0.7c-1,0-2-0.7-2-2.5
			c0-2,1.4-2.8,2.7-2.8c0.3,0,0.6,0.1,0.7,0.1v-1.8l-0.7-0.1c0,0,0-0.1,0-0.1c0-0.2,0.1-0.3,0.4-0.3l1.4-0.1V152.3z M27.1,148.6
			c-0.2-0.1-0.4-0.3-0.9-0.3c-0.9,0-1.5,0.6-1.5,2c0,1.4,0.6,1.9,1.3,1.9c0.6,0,0.9-0.3,1.1-0.4V148.6z"/>
		<path d="M30.6,150.4c0,1.3,0.6,1.9,1.5,1.9c0.7,0,1-0.3,1.3-0.5c0.1,0.1,0.2,0.3,0.2,0.4c0,0.3-0.7,0.9-1.9,0.9
			c-1.3,0-2.3-0.7-2.3-2.6s1.1-2.8,2.3-2.8c1.2,0,1.8,0.7,1.8,1.8c0,0.3-0.1,0.6-0.1,0.9H30.6z M32.5,149.8c0-0.1,0.1-0.3,0.1-0.5
			c0-0.6-0.2-1.1-0.8-1.1c-0.6,0-1,0.5-1.1,1.5H32.5z"/>
		<path d="M36.9,148.5c-0.1-0.1-0.4-0.2-0.7-0.2c-0.3,0-0.7,0.1-0.7,0.6c0,0.5,0.5,0.7,1,1c0.6,0.4,1.3,0.8,1.3,1.6
			c0,0.9-0.7,1.5-1.9,1.5c-0.6,0-1.1-0.2-1.3-0.3c0-0.3-0.1-0.5-0.1-0.8c0-0.4,0.1-0.6,0.4-0.6c0.1,0,0.1,0,0.1,0l0.2,0.9
			c0.1,0.1,0.4,0.2,0.7,0.2c0.5,0,0.8-0.2,0.8-0.6c0-0.5-0.5-0.7-1-1c-0.6-0.4-1.3-0.8-1.3-1.7c0-0.8,0.7-1.4,1.7-1.4
			c0.6,0,1,0.2,1.2,0.4c0,0.1,0,0.4,0,0.6c0,0.4-0.1,0.6-0.5,0.6c-0.1,0-0.1,0-0.1,0L36.9,148.5z"/>
		<path d="M43.2,152.9h-2.4c0,0,0-0.1,0-0.1c0-0.2,0.1-0.3,0.4-0.4l0.4-0.1v-6.1l-0.6-0.1c-0.1,0-0.1-0.1-0.1-0.1
			c0-0.1,0.1-0.2,0.1-0.3h2.3c2.6,0,4.2,1,4.2,3.5C47.5,151.7,45.9,152.9,43.2,152.9z M43.2,146.3h-0.4v6h0.4c1.9,0,3.1-1,3.1-3.1
			C46.2,147.2,45.1,146.3,43.2,146.3z"/>
		<path d="M49.5,150.4c0,1.3,0.6,1.9,1.5,1.9c0.7,0,1-0.3,1.3-0.5c0.1,0.1,0.2,0.3,0.2,0.4c0,0.3-0.7,0.9-1.9,0.9
			c-1.3,0-2.3-0.7-2.3-2.6s1.1-2.8,2.3-2.8c1.2,0,1.8,0.7,1.8,1.8c0,0.3-0.1,0.6-0.1,0.9H49.5z M51.3,149.8c0-0.1,0.1-0.3,0.1-0.5
			c0-0.6-0.2-1.1-0.8-1.1c-0.6,0-1,0.5-1.1,1.5H51.3z"/>
		<path d="M58,152.3l0.8,0.1c0,0,0,0,0,0.1c0,0.2-0.1,0.3-0.4,0.3l-1.4,0.1v-0.7h0c-0.2,0.2-0.6,0.8-1.6,0.8c-1.1,0-1.6-0.7-1.6-1.9
			v-2.7l-0.7-0.1c0,0,0-0.1,0-0.1c0-0.2,0.1-0.3,0.4-0.3l1.4-0.1v3.3c0,1,0.5,1.2,1,1.2c0.5,0,0.9-0.2,1.1-0.5v-3.3l-0.7-0.1
			c0,0,0-0.1,0-0.1c0-0.2,0.1-0.3,0.4-0.3l1.4-0.1V152.3z"/>
		<path d="M62.4,148.4H61v3.1c0,0.5,0.1,0.9,0.7,0.9c0.4,0,0.7-0.2,0.8-0.3c0.1,0.1,0.1,0.2,0.1,0.3c0,0.1-0.4,0.6-1.3,0.6
			s-1.3-0.6-1.3-1.4v-3.3h-0.8c0,0,0-0.1,0-0.1c0-0.2,0.1-0.3,0.3-0.4l0.5-0.1l0.2-1.4H61v1.4h1.6L62.4,148.4z"/>
		<path d="M65.5,148.5c-0.1-0.1-0.4-0.2-0.7-0.2c-0.3,0-0.7,0.1-0.7,0.6c0,0.5,0.5,0.7,1,1c0.6,0.4,1.3,0.8,1.3,1.6
			c0,0.9-0.7,1.5-1.9,1.5c-0.6,0-1.1-0.2-1.3-0.3c0-0.3-0.1-0.5-0.1-0.8c0-0.4,0.1-0.6,0.4-0.6c0.1,0,0.1,0,0.1,0l0.2,0.9
			c0.1,0.1,0.4,0.2,0.7,0.2c0.5,0,0.8-0.2,0.8-0.6c0-0.5-0.5-0.7-1-1c-0.6-0.4-1.3-0.8-1.3-1.7c0-0.8,0.7-1.4,1.7-1.4
			c0.6,0,1,0.2,1.2,0.4c0,0.1,0,0.4,0,0.6c0,0.4-0.1,0.6-0.5,0.6c-0.1,0-0.1,0-0.1,0L65.5,148.5z"/>
		<path d="M69.7,148.3c-0.7,0-1.3,0.5-1.3,1.9c0,1.3,0.5,2.1,1.5,2.1c0.7,0,1-0.3,1.2-0.5c0.1,0.1,0.2,0.3,0.2,0.4
			c0,0.3-0.6,0.9-1.7,0.9c-1.4,0-2.2-0.9-2.2-2.6c0-1.8,1.2-2.7,2.6-2.7c1.2,0,1.4,0.6,1.4,0.9c0,0.3-0.1,0.5-0.5,0.6
			C70.6,148.8,70.3,148.3,69.7,148.3z"/>
		<path d="M73.5,148.4L73.5,148.4c0.2-0.3,0.7-0.8,1.6-0.8c1,0,1.6,0.6,1.6,1.8v2.8l0.6,0.1c0.1,0,0.1,0.1,0.1,0.1
			c0,0.1-0.1,0.3-0.1,0.3h-2.4c0,0,0-0.1,0-0.1c0-0.2,0.1-0.3,0.3-0.3l0.3-0.1v-2.7c0-0.9-0.5-1.2-1-1.2c-0.7,0-1,0.3-1.2,0.5v3.3
			l0.6,0.1c0.1,0,0.1,0.1,0.1,0.1c0,0.1-0.1,0.3-0.1,0.3h-2.4c0,0,0-0.1,0-0.1c0-0.2,0.1-0.3,0.3-0.3l0.4-0.1v-6.4l-0.7-0.1
			c0,0,0-0.1,0-0.1c0-0.2,0.1-0.3,0.4-0.3l1.4-0.1V148.4z"/>
		<path d="M79.2,150.4c0,1.3,0.6,1.9,1.5,1.9c0.7,0,1-0.3,1.3-0.5c0.1,0.1,0.2,0.3,0.2,0.4c0,0.3-0.7,0.9-1.9,0.9
			c-1.3,0-2.3-0.7-2.3-2.6s1.1-2.8,2.3-2.8c1.2,0,1.8,0.7,1.8,1.8c0,0.3-0.1,0.6-0.1,0.9H79.2z M81.1,149.8c0-0.1,0.1-0.3,0.1-0.5
			c0-0.6-0.2-1.1-0.8-1.1c-0.6,0-1,0.5-1.1,1.5H81.1z"/>
		<path d="M88,152.3l0.6,0.1c0.1,0,0.1,0.1,0.1,0.1c0,0.1-0.1,0.3-0.1,0.3h-2.4c0,0,0-0.1,0-0.1c0-0.2,0.1-0.3,0.3-0.3l0.3-0.1v-2.7
			c0-0.9-0.5-1.2-1-1.2c-0.6,0-1,0.3-1.2,0.5v3.4l0.6,0.1c0.1,0,0.1,0.1,0.1,0.1c0,0.1-0.1,0.3-0.1,0.3H83c0,0,0-0.1,0-0.1
			c0-0.2,0.1-0.3,0.3-0.3l0.4-0.1v-3.9l-0.7-0.1c0,0,0-0.1,0-0.1c0-0.2,0.1-0.3,0.4-0.3l1.4-0.1l-0.1,0.7h0c0.3-0.3,0.8-0.8,1.7-0.8
			c1,0,1.6,0.7,1.6,1.8V152.3z"/>
		<path d="M95.4,149.1L95.4,149.1c1,0.2,1.7,0.8,1.7,1.7c0,1.2-1,2-2.9,2h-2.7c0,0,0-0.1,0-0.1c0-0.2,0.1-0.3,0.4-0.4l0.4-0.1v-6.1
			l-0.6-0.1c-0.1,0-0.1-0.1-0.1-0.1c0-0.1,0.1-0.2,0.1-0.3h2.5c1.9,0,2.8,0.7,2.8,1.8C96.9,148.5,96.3,148.9,95.4,149.1z M94,146.3
			h-0.6v2.6H94c1.2,0,1.7-0.6,1.7-1.3C95.7,146.7,95.2,146.3,94,146.3z M94.2,149.5h-0.7v2.7h0.6c1.2,0,1.8-0.6,1.8-1.4
			C95.9,150.1,95.3,149.5,94.2,149.5z"/>
		<path d="M102.7,152.3l0.8,0.1c0,0,0,0,0,0.1c0,0.2-0.1,0.3-0.4,0.3l-1.4,0.1v-0.7h0c-0.2,0.2-0.6,0.8-1.6,0.8
			c-1.1,0-1.6-0.7-1.6-1.9v-2.7l-0.7-0.1c0,0,0-0.1,0-0.1c0-0.2,0.1-0.3,0.4-0.3l1.4-0.1v3.3c0,1,0.5,1.2,1,1.2
			c0.5,0,0.9-0.2,1.1-0.5v-3.3l-0.7-0.1c0,0,0-0.1,0-0.1c0-0.2,0.1-0.3,0.4-0.3l1.4-0.1V152.3z"/>
		<path d="M109,152.3l0.6,0.1c0.1,0,0.1,0.1,0.1,0.1c0,0.1-0.1,0.3-0.1,0.3h-2.4c0,0,0-0.1,0-0.1c0-0.2,0.1-0.3,0.3-0.3l0.3-0.1
			v-2.7c0-0.9-0.5-1.2-1-1.2c-0.6,0-1,0.3-1.2,0.5v3.4l0.6,0.1c0.1,0,0.1,0.1,0.1,0.1c0,0.1-0.1,0.3-0.1,0.3H104c0,0,0-0.1,0-0.1
			c0-0.2,0.1-0.3,0.3-0.3l0.4-0.1v-3.9l-0.7-0.1c0,0,0-0.1,0-0.1c0-0.2,0.1-0.3,0.4-0.3l1.4-0.1l-0.1,0.7h0c0.3-0.3,0.8-0.8,1.7-0.8
			c1,0,1.6,0.7,1.6,1.8V152.3z"/>
		<path d="M114.9,152.3l0.8,0.1c0,0,0,0,0,0.1c0,0.2-0.1,0.3-0.4,0.3l-1.4,0.1v-0.7h0c-0.2,0.3-0.7,0.7-1.5,0.7c-1,0-2-0.7-2-2.5
			c0-2,1.4-2.8,2.7-2.8c0.3,0,0.6,0.1,0.7,0.1v-1.8l-0.7-0.1c0,0,0-0.1,0-0.1c0-0.2,0.1-0.3,0.4-0.3l1.4-0.1V152.3z M113.8,148.6
			c-0.2-0.1-0.4-0.3-0.9-0.3c-0.9,0-1.5,0.6-1.5,2c0,1.4,0.6,1.9,1.3,1.9c0.6,0,0.9-0.3,1.1-0.4V148.6z"/>
		<path d="M117.3,150.4c0,1.3,0.6,1.9,1.5,1.9c0.7,0,1-0.3,1.3-0.5c0.1,0.1,0.2,0.3,0.2,0.4c0,0.3-0.7,0.9-1.9,0.9
			c-1.3,0-2.3-0.7-2.3-2.6s1.1-2.8,2.3-2.8c1.2,0,1.8,0.7,1.8,1.8c0,0.3-0.1,0.6-0.1,0.9H117.3z M119.2,149.8c0-0.1,0.1-0.3,0.1-0.5
			c0-0.6-0.2-1.1-0.8-1.1c-0.6,0-1,0.5-1.1,1.5H119.2z"/>
		<path d="M123.6,148.5c-0.1-0.1-0.4-0.2-0.7-0.2c-0.3,0-0.7,0.1-0.7,0.6c0,0.5,0.5,0.7,1,1c0.6,0.4,1.3,0.8,1.3,1.6
			c0,0.9-0.7,1.5-1.9,1.5c-0.6,0-1.1-0.2-1.3-0.3c0-0.3-0.1-0.5-0.1-0.8c0-0.4,0.1-0.6,0.4-0.6c0.1,0,0.1,0,0.1,0l0.2,0.9
			c0.1,0.1,0.4,0.2,0.7,0.2c0.5,0,0.8-0.2,0.8-0.6c0-0.5-0.5-0.7-1-1c-0.6-0.4-1.3-0.8-1.3-1.7c0-0.8,0.7-1.4,1.7-1.4
			c0.6,0,1,0.2,1.2,0.4c0,0.1,0,0.4,0,0.6c0,0.4-0.1,0.6-0.5,0.6c-0.1,0-0.1,0-0.1,0L123.6,148.5z"/>
		<path d="M128.3,148.4h-1.4v3.1c0,0.5,0.1,0.9,0.7,0.9c0.4,0,0.7-0.2,0.8-0.3c0.1,0.1,0.1,0.2,0.1,0.3c0,0.1-0.4,0.6-1.3,0.6
			c-1,0-1.3-0.6-1.3-1.4v-3.3H125c0,0,0-0.1,0-0.1c0-0.2,0.1-0.3,0.3-0.4l0.5-0.1l0.2-1.4h0.8v1.4h1.6L128.3,148.4z"/>
		<path d="M132.7,151.8c0,0.4,0.2,0.5,0.3,0.5c0.2,0,0.4-0.1,0.4-0.2c0.1,0.1,0.1,0.2,0.1,0.3c0,0.1-0.3,0.5-1,0.5
			c-0.5,0-0.8-0.2-0.9-0.7h0c-0.1,0.2-0.5,0.8-1.4,0.8c-0.8,0-1.4-0.5-1.4-1.4c0-1.1,1.2-1.5,2.4-1.5h0.3v-0.5c0-1-0.3-1.3-0.9-1.3
			c-0.2,0-0.5,0.1-0.5,0.1c-0.1,0.2-0.2,0.6-0.2,0.9c0,0-0.2,0-0.2,0c-0.4,0-0.6-0.2-0.6-0.5c0-0.7,0.9-1.1,1.8-1.1
			c1.2,0,1.7,0.6,1.7,1.8V151.8z M131.4,150.6c-0.8,0-1.3,0.3-1.3,0.9c0,0.4,0.3,0.7,0.7,0.7s0.8-0.3,0.9-0.5v-1.2L131.4,150.6z"/>
		<path d="M138.6,148.4h-0.9c0.2,0.3,0.3,0.6,0.3,1c0,1.1-0.9,1.7-2.1,1.7c-0.2,0-0.3,0-0.5-0.1c-0.1,0.1-0.3,0.2-0.3,0.5
			c0,0.3,0.2,0.4,0.5,0.4h1.2c1,0,1.5,0.4,1.5,1.2c0,1-1,2-2.8,2c-1.3,0-1.9-0.5-1.9-1.2c0-0.7,0.6-1.1,1-1.2v0
			c-0.3-0.1-0.4-0.4-0.4-0.7c0-0.6,0.6-0.9,0.8-1v0c-0.6-0.3-1-0.8-1-1.6c0-1.1,0.9-1.7,2-1.7c0.3,0,0.6,0,0.8,0.1h1.8L138.6,148.4z
			 M135.6,152.8c-0.1,0-0.3,0-0.4,0c-0.3,0.2-0.5,0.4-0.5,0.8c0,0.5,0.3,0.9,1.1,0.9c1,0,1.6-0.5,1.6-1c0-0.4-0.2-0.6-0.8-0.6H135.6
			z M135.2,149.4c0,0.8,0.4,1.2,0.9,1.2c0.6,0,1-0.3,1-1.2c0-0.7-0.4-1.1-1-1.1S135.2,148.6,135.2,149.4z"/>
		<path d="M140.4,150.4c0,1.3,0.6,1.9,1.5,1.9c0.7,0,1-0.3,1.3-0.5c0.1,0.1,0.2,0.3,0.2,0.4c0,0.3-0.7,0.9-1.9,0.9
			c-1.3,0-2.3-0.7-2.3-2.6s1.1-2.8,2.3-2.8c1.2,0,1.8,0.7,1.8,1.8c0,0.3-0.1,0.6-0.1,0.9H140.4z M142.2,149.8c0-0.1,0.1-0.3,0.1-0.5
			c0-0.6-0.2-1.1-0.8-1.1c-0.6,0-1,0.5-1.1,1.5H142.2z"/>
		<path d="M146.6,148.5c-0.1-0.1-0.4-0.2-0.7-0.2c-0.3,0-0.7,0.1-0.7,0.6c0,0.5,0.5,0.7,1,1c0.6,0.4,1.3,0.8,1.3,1.6
			c0,0.9-0.7,1.5-1.9,1.5c-0.6,0-1.1-0.2-1.3-0.3c0-0.3-0.1-0.5-0.1-0.8c0-0.4,0.1-0.6,0.4-0.6c0.1,0,0.1,0,0.1,0l0.2,0.9
			c0.1,0.1,0.4,0.2,0.7,0.2c0.5,0,0.8-0.2,0.8-0.6c0-0.5-0.5-0.7-1-1c-0.6-0.4-1.3-0.8-1.3-1.7c0-0.8,0.7-1.4,1.7-1.4
			c0.6,0,1,0.2,1.2,0.4c0,0.1,0,0.4,0,0.6c0,0.4-0.1,0.6-0.5,0.6c-0.1,0-0.1,0-0.1,0L146.6,148.5z"/>
	</g>
</g>
<g id="Bildwortmarke">
	<polygon fill="#FFCC00" points="54.5,91.5 56,91.5 56,111.5 52.5,111.5 52.5,91.5 	"/>
	<polygon fill="#FF0000" points="54.5,71.5 56,71.5 56,91.5 52.5,91.5 52.5,71.5 	"/>
	<g>
		<path d="M43.4,58.5c1,1.6,1.8,1.6,3,1.6c-1-0.8-1.7-1.8-2-2.3l-1.9-3c-0.2-0.9-0.7-1.8-1.4-2.4c0.2-0.1,0.4-0.2,0.6-0.3
			c-1.2,0-2.4-0.6-3.1-0.6c-0.4,0-0.7,0.3-0.7,0.6c0,0.4,0.4,0.8,1.1,0.8c0.2,0,0.4,0,0.6-0.1c0.4,0.5,0.7,1,0.7,1.7
			c0,1.3-1.6,2.3-3.1,2.3c-0.1,0-0.2,0-0.3,0c-0.1-0.3-0.6-0.9-0.6-1.5c0-1,0.7-1.9,0.7-2.9c0-0.6-0.3-1-0.4-1.2
			c0.2-0.2,0.4-0.4,0.5-0.6c-0.1,0-0.2,0.1-0.4,0.1c-0.8,0-1.4-0.2-2-0.2c-0.3,0-0.4,0.1-0.4,0.2c0,0,0,0.1,0,0.1
			c-0.1-0.1-0.2-0.1-0.4-0.1c-0.2,0-0.4-0.1-0.6-0.1c-0.7,0-1,0.3-1,0.6c0,0.2,0.2,0.6,0.4,0.9c0.3-0.1,0.6-0.2,0.8-0.2
			c0.4,0,0.7,0.4,0.9,0.8c-0.3,0-0.3,0-0.6,0c-0.7,0-1.2-0.3-1.3-0.3c0,0,0,0,0,0c0,0.1,0.2,0.4,0.6,0.5c0.5,0.2,1.3,0.3,1.4,0.3
			c0,0-0.1,0.3-0.3,0.3c0,0-0.1,0-0.1,0c-0.5-0.1-0.7-0.2-1.4-0.4c0,0,0,0,0,0c0,0.3,0.7,0.9,1.3,1.1c-0.5,0.7-1.2,1.4-1.5,2.4
			c-0.1,0-0.2,0-0.3,0c-1.6,0-3.1-1-3.1-2.3c0-0.7,0.3-1.2,0.7-1.7c0.2,0,0.4,0.1,0.6,0.1c0.7,0,1.1-0.4,1.1-0.8
			c0-0.3-0.3-0.6-0.7-0.6c-0.7,0-1.9,0.6-3.1,0.6c0.1,0.1,0.3,0.2,0.6,0.3c-0.7,0.6-1.2,1.5-1.4,2.4l-1.9,3c-0.3,0.5-1,1.5-2,2.3
			c1.2,0,2,0,3-1.6l1-1.5c0.1,0.2,0.2,0.4,0.3,0.6l-1.9,3.1c-0.3,0.5-1,1.5-2,2.3c1.2,0,2,0,3-1.6l1.6-2.6c0.1,0.1,0.3,0.3,0.4,0.4
			l-2.3,3.7c-0.3,0.5-1,1.5-2,2.2c1.2,0,2,0,3-1.6l2.3-3.6c0.1,0.1,0.3,0.2,0.5,0.3l-2.8,4.4c-0.3,0.5-1,1.5-2,2.2c1.2,0,2,0,3-1.6
			l2.8-4.5c0.2,0.1,0.3,0.1,0.5,0.2l-3.2,5.1c-0.3,0.5-1,1.5-2,2.2c1.2,0,2,0,3-1.6l3.4-5.5c0,0,0.1,0,0.1,0
			c0.1,0.3,0.2,0.6,0.2,0.8c0,1.7-1.1,3.2-2.5,4.4c0.1,0,0.2,0.1,0.4,0.1c0.3,0,0.5,0,0.6,0c-0.3,0.7-1,1.6-1.3,2.1
			c-0.4-0.1-1.1-0.1-1.5-0.1c-0.4,0-0.5,0.3-0.5,0.5c0,0.4,0.2,0.7,0.4,0.9c0.1-0.2,0.2-0.5,1.1-0.5c0,0,0,0,0.1,0
			c-0.2,0.3-1,0.9-1,1.4c0,0.3,0.4,0.8,0.8,0.8c0-0.1,0-0.2,0-0.3c0-0.4,0.3-0.9,0.6-1.2c0,0.1,0,0.1,0,0.2c0,0.9,0.1,1.4,0.7,1.4
			c0.3,0,0.5-0.2,0.6-0.2c-0.4-0.4-0.4-0.6-0.4-1.2c0-0.1,0-0.3,0-0.5c0-0.1,0-0.3,0-0.4c0.2,0,0.3,0,0.5,0c0,0,0.8-0.1,1,0.4
			c0.2-0.2,0.6-0.5,0.6-0.8c0-0.2-0.1-0.5-0.5-0.5c-0.2,0-0.7,0.1-1.1,0.1c0.1-0.3,0.6-1,1.1-1.6c0.1,0.2,0.2,0.4,0.4,0.6
			c0-0.4,0.2-1.5,0.8-2.1c0.1,0.4,0.2,0.9,0.2,1.8c0,2.3-0.6,4-1.7,4.3c0.2,0.3,0.5,0.5,0.8,0.5c0.4,0,0.7-0.5,0.9-0.9
			c0.1,0.3,0.5,1.2,0.8,1.2c0.3,0,0.7-0.8,0.8-1.2c0.2,0.5,0.5,0.9,0.9,0.9c0.3,0,0.7-0.2,0.8-0.5c-1.2-0.3-1.7-2-1.7-4.3
			c0-1,0.1-1.4,0.1-1.8c0.6,0.7,0.8,1.8,0.8,2.1c0.2-0.2,0.3-0.4,0.4-0.6c0.4,0.5,1,1.3,1.1,1.6c-0.4,0-0.9-0.1-1.1-0.1
			c-0.4,0-0.5,0.2-0.5,0.5c0,0.3,0.3,0.6,0.6,0.8c0.2-0.4,1-0.4,1-0.4c0.2,0,0.2,0,0.5,0c0,0.1,0,0.3,0,0.4c0,0.2,0,0.3,0,0.5
			c0,0.5,0,0.8-0.4,1.2c0.1,0,0.3,0.2,0.6,0.2c0.6,0,0.7-0.4,0.7-1.4c0-0.1,0-0.1,0-0.2c0.3,0.3,0.6,0.8,0.6,1.2c0,0.1,0,0.2,0,0.3
			c0.5,0,0.8-0.5,0.8-0.8c0-0.5-0.7-1.1-1-1.4c0,0,0.1,0,0.1,0c0.8,0,1,0.3,1.1,0.5c0.2-0.2,0.4-0.5,0.4-0.9c0-0.2,0-0.5-0.5-0.5
			c-0.4,0-1.1,0.1-1.5,0.1c-0.3-0.5-1-1.4-1.3-2.1c0.1,0,0.3,0,0.6,0c0.1,0,0.3,0,0.4-0.1c-1.4-1.2-2.5-2.7-2.5-4.4
			c0-0.3,0.1-0.6,0.2-0.8c0,0,0.1,0,0.1,0l3.4,5.5c1,1.6,1.8,1.6,3,1.6c-1-0.8-1.7-1.8-2-2.2l-3.2-5.1c0.2-0.1,0.3-0.1,0.5-0.2
			l2.8,4.5c1,1.6,1.8,1.6,3,1.6c-1-0.8-1.7-1.7-2-2.2L39.5,60c0.2-0.1,0.3-0.2,0.5-0.3l2.3,3.6c1,1.6,1.8,1.6,3,1.6
			c-1-0.8-1.7-1.7-2-2.2L41,59c0.1-0.1,0.3-0.2,0.4-0.4l1.6,2.6c1,1.6,1.8,1.6,3,1.6c-1-0.8-1.7-1.7-2-2.3l-1.9-3.1
			c0.1-0.2,0.2-0.4,0.3-0.6L43.4,58.5z M28.1,54.9c0-1.1,0.8-2,1.1-2.3c0.1,0,0.1,0,0.2,0c-0.3,0.4-0.9,1-0.9,1.9
			c0,1.7,1.8,3.1,3.8,3.1c0,0.1,0,0.3,0,0.4c0,0.2,0,0.5,0,0.7C30.1,58.8,28.1,56.9,28.1,54.9z M31.2,68.6L31.2,68.6L31.2,68.6
			c0.7,0,1,0,1.2,0c0.1,0,0.2,0,0.3,0c0.2,0,0.3,0,0.3,0.2c0,0.1-0.2,0.4-0.3,0.5C32.4,69,32,69,31.6,69c-0.2,0-0.5,0-0.7,0.1l0,0
			l0,0l0,0.1c0,0.1,0,0.3,0,0.5l0,0.2l0,0.3c0,0.5,0.1,0.9,0.3,1.1c0,0-0.1,0-0.2,0c-0.3,0-0.4-0.1-0.4-1.1c0-0.2,0-0.4,0-0.5l0-0.2
			l0,0c-0.5,0.4-1,1.1-1.1,1.6c-0.2-0.1-0.3-0.3-0.3-0.5c0-0.3,0.4-0.7,0.9-1.2l0.3-0.3l0,0l-0.1,0c-0.1,0-0.3-0.1-0.5-0.1
			c-0.5,0-0.9,0.1-1.1,0.3c-0.1-0.1-0.1-0.4-0.1-0.5c0-0.1,0-0.2,0.1-0.2c0,0,0.1,0,0.2,0h0c0.6,0,1.3,0.1,1.6,0.2l0,0l0,0
			c0-0.1,1.2-1.6,1.5-2.4c0.1,0,0.1,0,0.2,0c0.2,0,0.3,0.2,0.4,0.4C31.8,67.5,31.3,68.2,31.2,68.6z M37.4,66.2c0.1,0,0.2,0,0.2,0
			c0.3,0.8,1.4,2.3,1.5,2.4l0,0l0,0c0.3,0,1-0.2,1.6-0.2h0c0.1,0,0.1,0,0.2,0c0,0,0.1,0.1,0.1,0.2c0,0.1-0.1,0.4-0.1,0.5
			c-0.2-0.2-0.6-0.3-1.1-0.3c-0.2,0-0.4,0-0.5,0.1l0,0l0,0l0.3,0.3c0.5,0.5,0.9,0.9,0.9,1.2c0,0.2-0.2,0.4-0.3,0.5
			c0-0.5-0.5-1.2-1.1-1.6l0,0l0,0.2c0,0.1,0,0.3,0,0.5c0,1-0.1,1.1-0.4,1.1c-0.1,0-0.1,0-0.2,0c0.2-0.2,0.3-0.5,0.3-1.1l0-0.3l0-0.2
			c0-0.2,0-0.4,0-0.5l0-0.1l-0.1,0c-0.2,0-0.5-0.1-0.7-0.1c-0.5,0-0.8,0-1,0.3c-0.2-0.1-0.3-0.3-0.3-0.5c0-0.2,0.1-0.2,0.3-0.2
			c0.1,0,0.2,0,0.3,0c0.2,0,0.5,0.1,1.2,0.1h0l0,0c-0.2-0.5-0.6-1.1-1.3-2C37.1,66.4,37.1,66.2,37.4,66.2z M34.7,52.9
			c-0.1-0.3-0.2-0.6-0.4-0.8c-0.2-0.2-0.5-0.5-0.9-0.5c-0.2,0-0.5,0.1-0.7,0.2c-0.1-0.1-0.2-0.4-0.2-0.6c0-0.1,0.2-0.3,0.7-0.3
			c1,0,1.6,0.5,1.6,1.2C34.9,52.5,34.8,52.7,34.7,52.9z M35.2,51.9c0-0.2-0.1-0.4-0.2-0.6c0-0.2,0.1-0.4,0.4-0.2
			c-0.2,0.2,0,0.5,0,0.5s0.4-0.2,0.3-0.4C36.1,51.3,35.7,52,35.2,51.9z M37.2,58.8c0-0.2,0-0.5,0-0.7c0-0.1,0-0.3,0-0.4
			c2,0,3.7-1.5,3.7-3.1c0-0.8-0.5-1.5-0.9-1.9c0.1,0,0.1,0,0.2,0c0.3,0.3,1.1,1.2,1.1,2.3C41.4,56.9,39.4,58.8,37.2,58.8z"/>
	</g>
	<polygon points="56,51.5 56,71.5 54.5,71.5 52.5,71.5 52.5,51.5 	"/>
	<path d="M63.4,59.5v-8.2H65c0.7,0,1.2,0.1,1.7,0.2c0.5,0.1,0.9,0.4,1.2,0.7c0.3,0.3,0.6,0.7,0.7,1.2c0.2,0.5,0.2,1.1,0.2,1.8
		c0,0.8-0.1,1.4-0.3,1.9c-0.2,0.5-0.5,1-0.8,1.3c-0.3,0.3-0.8,0.6-1.3,0.8c-0.5,0.2-1.1,0.2-1.7,0.2H63.4z M64.5,52.1v6.5h0.4
		c0.5,0,0.9-0.1,1.3-0.2c0.4-0.1,0.7-0.3,0.9-0.6c0.3-0.3,0.4-0.6,0.6-1.1c0.1-0.4,0.2-1,0.2-1.6c0-0.6-0.1-1.1-0.2-1.5
		s-0.3-0.7-0.6-1c-0.2-0.2-0.5-0.4-0.9-0.5c-0.4-0.1-0.8-0.2-1.2-0.2H64.5z M71.2,59.5h-1v-5.7h1V59.5z M70.7,52.4
		c-0.2,0-0.4-0.1-0.5-0.2c-0.1-0.1-0.2-0.3-0.2-0.5c0-0.2,0.1-0.4,0.2-0.5c0.1-0.1,0.3-0.2,0.5-0.2c0.2,0,0.3,0.1,0.5,0.2
		c0.1,0.1,0.2,0.3,0.2,0.5c0,0.2-0.1,0.4-0.2,0.5C71.1,52.3,70.9,52.4,70.7,52.4z M76.3,55.7c0,0.2,0,0.5,0,0.6c0,0.2,0,0.3,0,0.5
		h-2.9c0,0.7,0.2,1.2,0.4,1.5c0.3,0.3,0.6,0.5,1.1,0.5c0.2,0,0.3,0,0.5-0.1c0.1,0,0.3-0.1,0.4-0.1c0.1-0.1,0.2-0.1,0.2-0.2
		c0.1-0.1,0.1-0.1,0.1-0.1l0.4,0.7c0,0-0.1,0.1-0.2,0.2c-0.1,0.1-0.2,0.2-0.3,0.2c-0.1,0.1-0.3,0.1-0.5,0.2
		c-0.2,0.1-0.4,0.1-0.7,0.1c-0.4,0-0.7-0.1-1-0.2c-0.3-0.1-0.5-0.3-0.7-0.6s-0.4-0.6-0.5-1c-0.1-0.4-0.2-0.8-0.2-1.4
		c0-0.5,0.1-0.9,0.2-1.3c0.1-0.4,0.3-0.7,0.5-0.9c0.2-0.2,0.4-0.4,0.7-0.5c0.3-0.1,0.5-0.2,0.8-0.2c0.5,0,1,0.2,1.3,0.5
		C76.2,54.5,76.3,55,76.3,55.7z M74.5,54.4c-0.3,0-0.6,0.1-0.8,0.4c-0.2,0.3-0.3,0.7-0.4,1.2h2.1c0,0,0-0.1,0-0.2c0-0.1,0-0.2,0-0.2
		c0-0.4-0.1-0.7-0.2-0.9C75.1,54.5,74.8,54.4,74.5,54.4z M84.7,53.3c0,0.3,0,0.5-0.1,0.7c-0.1,0.2-0.2,0.4-0.3,0.6
		c-0.1,0.2-0.3,0.3-0.4,0.4c-0.2,0.1-0.3,0.2-0.5,0.2v0c0.2,0,0.4,0.1,0.6,0.2c0.2,0.1,0.3,0.2,0.5,0.4c0.1,0.2,0.2,0.4,0.3,0.6
		c0.1,0.2,0.1,0.5,0.1,0.7c0,0.3-0.1,0.6-0.2,0.9s-0.3,0.5-0.5,0.7c-0.2,0.2-0.5,0.4-0.9,0.5c-0.4,0.1-0.8,0.2-1.3,0.2h-1.7v-8.2
		h1.6c0.5,0,0.9,0,1.2,0.1c0.3,0.1,0.6,0.2,0.9,0.4s0.4,0.4,0.5,0.7C84.6,52.7,84.7,53,84.7,53.3z M83.6,53.4c0-0.4-0.1-0.7-0.4-0.9
		s-0.7-0.4-1.3-0.4h-0.5v2.8h0.5c0.6,0,1-0.1,1.3-0.4C83.5,54.2,83.6,53.8,83.6,53.4z M83.8,57.2c0-0.4-0.1-0.8-0.4-1.1
		c-0.3-0.3-0.7-0.4-1.2-0.4h-0.7v2.9H82c0.6,0,1.1-0.1,1.3-0.4C83.6,58,83.8,57.6,83.8,57.2z M89.8,55.7c0,0.2,0,0.5,0,0.6
		c0,0.2,0,0.3,0,0.5h-2.9c0,0.7,0.2,1.2,0.4,1.5c0.3,0.3,0.6,0.5,1.1,0.5c0.2,0,0.3,0,0.5-0.1c0.1,0,0.3-0.1,0.4-0.1
		c0.1-0.1,0.2-0.1,0.2-0.2c0.1-0.1,0.1-0.1,0.1-0.1l0.4,0.7c0,0-0.1,0.1-0.2,0.2c-0.1,0.1-0.2,0.2-0.3,0.2c-0.1,0.1-0.3,0.1-0.5,0.2
		s-0.4,0.1-0.7,0.1c-0.4,0-0.7-0.1-1-0.2c-0.3-0.1-0.5-0.3-0.7-0.6s-0.4-0.6-0.5-1c-0.1-0.4-0.2-0.8-0.2-1.4c0-0.5,0.1-0.9,0.2-1.3
		c0.1-0.4,0.3-0.7,0.5-0.9c0.2-0.2,0.4-0.4,0.7-0.5c0.3-0.1,0.5-0.2,0.8-0.2c0.5,0,1,0.2,1.3,0.5C89.7,54.5,89.8,55,89.8,55.7z
		 M88,54.4c-0.3,0-0.6,0.1-0.8,0.4c-0.2,0.3-0.3,0.7-0.4,1.2h2.1c0,0,0-0.1,0-0.2c0-0.1,0-0.2,0-0.2c0-0.4-0.1-0.7-0.2-0.9
		C88.5,54.5,88.3,54.4,88,54.4z M90.8,58c0-0.3,0.1-0.6,0.2-0.8s0.3-0.4,0.5-0.5c0.2-0.1,0.5-0.2,0.8-0.3c0.3-0.1,0.6-0.1,0.9-0.1
		h0.3v-0.5c0-0.5-0.1-0.8-0.3-1c-0.2-0.2-0.4-0.3-0.7-0.3c-0.3,0-0.5,0.1-0.7,0.2c-0.2,0.1-0.3,0.2-0.5,0.3l-0.4-0.6
		c0.1-0.1,0.1-0.1,0.2-0.2c0.1-0.1,0.2-0.2,0.4-0.2c0.1-0.1,0.3-0.1,0.5-0.2c0.2,0,0.4-0.1,0.6-0.1c0.6,0,1,0.2,1.3,0.5
		c0.3,0.3,0.5,0.8,0.5,1.6v2.6c0,0.2,0,0.5,0,0.7c0,0.2,0,0.4,0,0.5h-0.9l0-0.6h0c0,0.1-0.1,0.2-0.1,0.2c-0.1,0.1-0.1,0.2-0.2,0.2
		c-0.1,0.1-0.2,0.1-0.3,0.2c-0.1,0.1-0.3,0.1-0.5,0.1c-0.2,0-0.4,0-0.6-0.1c-0.2-0.1-0.3-0.2-0.5-0.3c-0.1-0.1-0.2-0.3-0.3-0.5
		C90.8,58.4,90.8,58.2,90.8,58z M92.5,58.8c0.1,0,0.3,0,0.4-0.1s0.2-0.1,0.3-0.1c0.1-0.1,0.1-0.1,0.2-0.2c0.1-0.1,0.1-0.1,0.1-0.2
		V57l-0.3,0c-0.5,0-0.8,0.1-1,0.2c-0.2,0.1-0.4,0.4-0.4,0.7c0,0.3,0.1,0.5,0.2,0.7C92.1,58.7,92.2,58.8,92.5,58.8z M99.8,59.5H99
		v-0.6h0c0,0-0.1,0.1-0.2,0.2c-0.1,0.1-0.2,0.2-0.3,0.3c-0.1,0.1-0.3,0.2-0.4,0.2s-0.4,0.1-0.6,0.1c-0.3,0-0.5,0-0.7-0.1
		c-0.2-0.1-0.4-0.2-0.5-0.4c-0.1-0.2-0.3-0.4-0.3-0.6c-0.1-0.3-0.1-0.6-0.1-1v-3.7h1v3.7c0,0.5,0.1,0.8,0.2,1
		c0.2,0.2,0.4,0.3,0.7,0.3c0.3,0,0.5-0.1,0.7-0.2c0.2-0.1,0.3-0.3,0.5-0.4v-4.4h1V59.5z M103.7,54.5h-1.2v4.9h-1v-4.9h-0.7v-0.6
		l0.7-0.1v-1.1c0-0.3,0-0.6,0.1-0.8c0.1-0.2,0.2-0.4,0.3-0.5c0.1-0.1,0.3-0.2,0.5-0.3s0.4-0.1,0.6-0.1c0.2,0,0.4,0,0.5,0.1
		s0.2,0.1,0.3,0.1l-0.2,0.8c0,0-0.1-0.1-0.2-0.1c-0.1,0-0.2-0.1-0.3-0.1c-0.2,0-0.4,0.1-0.5,0.2c-0.1,0.1-0.2,0.4-0.2,0.8v1h1.3
		L103.7,54.5z M107.1,54.5h-1.2v3.2c0,0.4,0.1,0.7,0.2,0.8c0.1,0.1,0.3,0.2,0.5,0.2c0.1,0,0.3,0,0.4-0.1c0.1,0,0.2-0.1,0.2-0.1
		l0.1,0.8c0,0-0.1,0.1-0.3,0.1c-0.2,0.1-0.4,0.1-0.6,0.1c-0.5,0-0.9-0.1-1.1-0.4c-0.2-0.3-0.4-0.7-0.4-1.4v-3.3h-0.7v-0.6l0.7-0.1
		l0.1-1.6h0.9v1.6h1.4L107.1,54.5z M110.7,54.6c0,0-0.1,0-0.2-0.1s-0.2,0-0.3,0c-0.3,0-0.5,0.1-0.7,0.2c-0.2,0.2-0.3,0.3-0.4,0.5
		v4.2h-1v-5.7h0.9v0.8h0c0-0.1,0.1-0.2,0.2-0.3c0.1-0.1,0.1-0.2,0.2-0.3c0.1-0.1,0.2-0.1,0.3-0.2c0.1,0,0.3-0.1,0.5-0.1
		c0.1,0,0.2,0,0.3,0c0.1,0,0.1,0,0.2,0.1L110.7,54.6z M111.3,58c0-0.3,0.1-0.6,0.2-0.8s0.3-0.4,0.5-0.5c0.2-0.1,0.5-0.2,0.8-0.3
		c0.3-0.1,0.6-0.1,0.9-0.1h0.3v-0.5c0-0.5-0.1-0.8-0.3-1c-0.2-0.2-0.4-0.3-0.7-0.3c-0.3,0-0.5,0.1-0.7,0.2c-0.2,0.1-0.3,0.2-0.5,0.3
		l-0.4-0.6c0.1-0.1,0.1-0.1,0.2-0.2c0.1-0.1,0.2-0.2,0.4-0.2s0.3-0.1,0.5-0.2s0.4-0.1,0.6-0.1c0.6,0,1,0.2,1.3,0.5
		c0.3,0.3,0.5,0.8,0.5,1.6v2.6c0,0.2,0,0.5,0,0.7c0,0.2,0,0.4,0,0.5h-0.9l0-0.6h0c0,0.1-0.1,0.2-0.1,0.2c-0.1,0.1-0.1,0.2-0.2,0.2
		c-0.1,0.1-0.2,0.1-0.3,0.2s-0.3,0.1-0.5,0.1c-0.2,0-0.4,0-0.6-0.1c-0.2-0.1-0.3-0.2-0.5-0.3c-0.1-0.1-0.2-0.3-0.3-0.5
		C111.3,58.4,111.3,58.2,111.3,58z M113,58.8c0.1,0,0.3,0,0.4-0.1c0.1,0,0.2-0.1,0.3-0.1c0.1-0.1,0.1-0.1,0.2-0.2
		c0.1-0.1,0.1-0.1,0.1-0.2V57l-0.3,0c-0.5,0-0.8,0.1-1,0.2s-0.4,0.4-0.4,0.7c0,0.3,0.1,0.5,0.2,0.7C112.6,58.7,112.8,58.8,113,58.8z
		 M120.5,54.5h-0.7c0.2,0.3,0.3,0.6,0.3,1c0,0.3,0,0.6-0.1,0.8c-0.1,0.2-0.2,0.4-0.4,0.6c-0.2,0.2-0.4,0.3-0.6,0.4
		c-0.2,0.1-0.5,0.1-0.8,0.1c-0.1,0-0.1,0-0.2,0s-0.1,0-0.2,0c-0.1,0-0.2,0.1-0.3,0.2c-0.1,0.1-0.2,0.2-0.2,0.3c0,0.1,0,0.2,0.1,0.3
		c0.1,0.1,0.2,0.1,0.4,0.1h0.7c0.3,0,0.5,0,0.7,0.1c0.2,0.1,0.4,0.1,0.6,0.3c0.2,0.1,0.3,0.3,0.4,0.5s0.1,0.4,0.1,0.7
		c0,0.3-0.1,0.6-0.2,0.8c-0.1,0.3-0.3,0.5-0.6,0.7c-0.2,0.2-0.5,0.3-0.9,0.4s-0.7,0.2-1.1,0.2c-0.6,0-1.1-0.1-1.4-0.4
		c-0.3-0.3-0.5-0.6-0.5-1.1c0-0.2,0-0.4,0.1-0.6c0.1-0.2,0.2-0.3,0.3-0.4c0.1-0.1,0.2-0.2,0.3-0.3c0.1-0.1,0.2-0.1,0.3-0.2v0
		c-0.2-0.2-0.4-0.4-0.4-0.8c0-0.2,0-0.3,0.1-0.4c0.1-0.1,0.1-0.2,0.2-0.3c0.1-0.1,0.2-0.1,0.2-0.2c0.1,0,0.1-0.1,0.2-0.1v0
		c-0.3-0.1-0.5-0.3-0.7-0.6c-0.2-0.3-0.3-0.7-0.3-1.1c0-0.3,0.1-0.6,0.2-0.8c0.1-0.2,0.2-0.4,0.4-0.6c0.2-0.2,0.4-0.3,0.6-0.4
		c0.2-0.1,0.5-0.1,0.8-0.1s0.5,0,0.8,0.1h1.7L120.5,54.5z M117.8,59.3c-0.2,0-0.3,0-0.4,0c-0.1,0-0.1,0.1-0.2,0.1
		c-0.1,0.1-0.1,0.1-0.2,0.2c-0.1,0.1-0.1,0.2-0.1,0.3c0,0.1-0.1,0.2-0.1,0.4c0,0.6,0.3,0.9,1,0.9c0.6,0,1-0.1,1.3-0.3
		c0.3-0.2,0.4-0.5,0.4-0.8c0-0.3-0.1-0.5-0.3-0.6c-0.2-0.1-0.4-0.2-0.7-0.2H117.8z M119.1,55.5c0-0.4-0.1-0.7-0.3-0.9
		c-0.2-0.2-0.4-0.3-0.7-0.3c-0.3,0-0.5,0.1-0.7,0.3c-0.2,0.2-0.3,0.5-0.3,0.9c0,0.4,0.1,0.7,0.3,0.9c0.2,0.2,0.4,0.3,0.7,0.3
		c0.3,0,0.5-0.1,0.7-0.3C119,56.2,119.1,55.9,119.1,55.5z M124,54.5h-1.2v3.2c0,0.4,0.1,0.7,0.2,0.8c0.1,0.1,0.3,0.2,0.5,0.2
		c0.1,0,0.3,0,0.4-0.1c0.1,0,0.2-0.1,0.2-0.1l0.1,0.8c0,0-0.1,0.1-0.3,0.1c-0.2,0.1-0.4,0.1-0.6,0.1c-0.5,0-0.9-0.1-1.1-0.4
		c-0.2-0.3-0.4-0.7-0.4-1.4v-3.3h-0.7v-0.6l0.7-0.1l0.1-1.6h0.9v1.6h1.4L124,54.5z M128.7,55.7c0,0.2,0,0.5,0,0.6c0,0.2,0,0.3,0,0.5
		h-2.9c0,0.7,0.2,1.2,0.4,1.5c0.3,0.3,0.6,0.5,1.1,0.5c0.2,0,0.3,0,0.5-0.1c0.1,0,0.3-0.1,0.4-0.1c0.1-0.1,0.2-0.1,0.2-0.2
		c0.1-0.1,0.1-0.1,0.1-0.1l0.4,0.7c0,0-0.1,0.1-0.2,0.2c-0.1,0.1-0.2,0.2-0.3,0.2c-0.1,0.1-0.3,0.1-0.5,0.2
		c-0.2,0.1-0.4,0.1-0.7,0.1c-0.4,0-0.7-0.1-1-0.2c-0.3-0.1-0.5-0.3-0.7-0.6c-0.2-0.2-0.4-0.6-0.5-1c-0.1-0.4-0.2-0.8-0.2-1.4
		c0-0.5,0.1-0.9,0.2-1.3c0.1-0.4,0.3-0.7,0.5-0.9c0.2-0.2,0.4-0.4,0.7-0.5c0.3-0.1,0.5-0.2,0.8-0.2c0.5,0,1,0.2,1.3,0.5
		C128.5,54.5,128.7,55,128.7,55.7z M126.9,54.4c-0.3,0-0.6,0.1-0.8,0.4c-0.2,0.3-0.3,0.7-0.4,1.2h2.1c0,0,0-0.1,0-0.2
		c0-0.1,0-0.2,0-0.2c0-0.4-0.1-0.7-0.2-0.9C127.4,54.5,127.2,54.4,126.9,54.4z M132.2,56.7c0-0.6,0.1-1.1,0.2-1.5
		c0.2-0.4,0.3-0.7,0.6-0.9c0.2-0.2,0.5-0.4,0.8-0.5c0.3-0.1,0.6-0.1,0.9-0.1c0.2,0,0.3,0,0.5,0c0.1,0,0.2,0.1,0.3,0.1V51l1-0.1v8.5
		h-0.9v-0.6h0c0,0-0.1,0.1-0.1,0.2c-0.1,0.1-0.2,0.2-0.3,0.2c-0.1,0.1-0.2,0.2-0.4,0.2c-0.2,0.1-0.4,0.1-0.6,0.1
		c-0.3,0-0.5-0.1-0.8-0.2c-0.2-0.1-0.5-0.3-0.6-0.5c-0.2-0.2-0.3-0.5-0.4-0.9S132.2,57.2,132.2,56.7z M134.5,58.7
		c0.2,0,0.3,0,0.4-0.1c0.1,0,0.2-0.1,0.3-0.1c0.1-0.1,0.2-0.1,0.2-0.2c0.1-0.1,0.1-0.1,0.1-0.2v-3.5c-0.1-0.1-0.2-0.1-0.3-0.1
		c-0.1,0-0.3-0.1-0.4-0.1c-0.2,0-0.4,0-0.6,0.1c-0.2,0.1-0.4,0.2-0.5,0.4c-0.1,0.2-0.3,0.4-0.3,0.7c-0.1,0.3-0.1,0.6-0.1,1
		c0,0.4,0,0.7,0.1,1c0.1,0.3,0.2,0.5,0.3,0.6c0.1,0.2,0.3,0.3,0.4,0.4C134.1,58.7,134.3,58.7,134.5,58.7z M141.6,55.7
		c0,0.2,0,0.5,0,0.6c0,0.2,0,0.3,0,0.5h-2.9c0,0.7,0.2,1.2,0.4,1.5c0.3,0.3,0.6,0.5,1.1,0.5c0.2,0,0.3,0,0.5-0.1s0.3-0.1,0.4-0.1
		c0.1-0.1,0.2-0.1,0.2-0.2c0.1-0.1,0.1-0.1,0.1-0.1l0.4,0.7c0,0-0.1,0.1-0.2,0.2c-0.1,0.1-0.2,0.2-0.3,0.2c-0.1,0.1-0.3,0.1-0.5,0.2
		c-0.2,0.1-0.4,0.1-0.7,0.1c-0.4,0-0.7-0.1-1-0.2c-0.3-0.1-0.5-0.3-0.7-0.6s-0.4-0.6-0.5-1c-0.1-0.4-0.2-0.8-0.2-1.4
		c0-0.5,0.1-0.9,0.2-1.3c0.1-0.4,0.3-0.7,0.5-0.9c0.2-0.2,0.4-0.4,0.7-0.5c0.3-0.1,0.5-0.2,0.8-0.2c0.5,0,1,0.2,1.3,0.5
		S141.6,55,141.6,55.7z M139.8,54.4c-0.3,0-0.6,0.1-0.8,0.4c-0.2,0.3-0.3,0.7-0.4,1.2h2.1c0,0,0-0.1,0-0.2c0-0.1,0-0.2,0-0.2
		c0-0.4-0.1-0.7-0.2-0.9C140.4,54.5,140.1,54.4,139.8,54.4z M145.4,54.6c0,0-0.1,0-0.2-0.1s-0.2,0-0.3,0c-0.3,0-0.5,0.1-0.7,0.2
		c-0.2,0.2-0.3,0.3-0.4,0.5v4.2h-1v-5.7h0.9v0.8h0c0-0.1,0.1-0.2,0.2-0.3c0.1-0.1,0.1-0.2,0.2-0.3c0.1-0.1,0.2-0.1,0.3-0.2
		c0.1,0,0.3-0.1,0.5-0.1c0.1,0,0.2,0,0.3,0c0.1,0,0.1,0,0.2,0.1L145.4,54.6z M153.2,53.3c0,0.3,0,0.5-0.1,0.7
		c-0.1,0.2-0.2,0.4-0.3,0.6c-0.1,0.2-0.3,0.3-0.4,0.4c-0.2,0.1-0.3,0.2-0.5,0.2v0c0.2,0,0.4,0.1,0.6,0.2c0.2,0.1,0.3,0.2,0.5,0.4
		c0.1,0.2,0.2,0.4,0.3,0.6c0.1,0.2,0.1,0.5,0.1,0.7c0,0.3-0.1,0.6-0.2,0.9s-0.3,0.5-0.5,0.7c-0.2,0.2-0.5,0.4-0.9,0.5
		c-0.4,0.1-0.8,0.2-1.3,0.2h-1.7v-8.2h1.6c0.5,0,0.9,0,1.2,0.1c0.3,0.1,0.6,0.2,0.9,0.4c0.2,0.2,0.4,0.4,0.5,0.7
		C153.1,52.7,153.2,53,153.2,53.3z M152.1,53.4c0-0.4-0.1-0.7-0.4-0.9s-0.7-0.4-1.3-0.4h-0.5v2.8h0.5c0.6,0,1-0.1,1.3-0.4
		C152,54.2,152.1,53.8,152.1,53.4z M152.3,57.2c0-0.4-0.1-0.8-0.4-1.1c-0.3-0.3-0.7-0.4-1.2-0.4h-0.7v2.9h0.6c0.6,0,1.1-0.1,1.3-0.4
		C152.1,58,152.3,57.6,152.3,57.2z M158.6,59.5h-0.9v-0.6h0c0,0-0.1,0.1-0.2,0.2c-0.1,0.1-0.2,0.2-0.3,0.3c-0.1,0.1-0.3,0.2-0.4,0.2
		s-0.4,0.1-0.6,0.1c-0.3,0-0.5,0-0.7-0.1c-0.2-0.1-0.4-0.2-0.5-0.4c-0.1-0.2-0.3-0.4-0.3-0.6c-0.1-0.3-0.1-0.6-0.1-1v-3.7h1v3.7
		c0,0.5,0.1,0.8,0.2,1c0.2,0.2,0.4,0.3,0.7,0.3c0.3,0,0.5-0.1,0.7-0.2c0.2-0.1,0.3-0.3,0.5-0.4v-4.4h1V59.5z M163.2,59.5v-3.7
		c0-0.5-0.1-0.8-0.2-1c-0.2-0.2-0.4-0.3-0.7-0.3c-0.3,0-0.5,0.1-0.7,0.2s-0.3,0.3-0.5,0.4v4.4h-1v-5.7h0.9v0.6h0
		c0,0,0.1-0.1,0.2-0.2c0.1-0.1,0.2-0.2,0.3-0.3c0.1-0.1,0.3-0.2,0.5-0.2s0.4-0.1,0.6-0.1c0.3,0,0.5,0,0.7,0.1
		c0.2,0.1,0.4,0.2,0.5,0.4c0.1,0.2,0.3,0.4,0.3,0.6c0.1,0.3,0.1,0.6,0.1,1v3.7H163.2z M165.4,56.7c0-0.6,0.1-1.1,0.2-1.5
		c0.2-0.4,0.3-0.7,0.6-0.9c0.2-0.2,0.5-0.4,0.8-0.5c0.3-0.1,0.6-0.1,0.9-0.1c0.2,0,0.3,0,0.5,0c0.1,0,0.2,0.1,0.3,0.1V51l1-0.1v8.5
		h-0.9v-0.6h0c0,0-0.1,0.1-0.1,0.2c-0.1,0.1-0.2,0.2-0.3,0.2c-0.1,0.1-0.2,0.2-0.4,0.2c-0.2,0.1-0.4,0.1-0.6,0.1
		c-0.3,0-0.5-0.1-0.8-0.2c-0.2-0.1-0.5-0.3-0.6-0.5c-0.2-0.2-0.3-0.5-0.4-0.9S165.4,57.2,165.4,56.7z M167.6,58.7
		c0.2,0,0.3,0,0.4-0.1c0.1,0,0.2-0.1,0.3-0.1c0.1-0.1,0.2-0.1,0.2-0.2c0.1-0.1,0.1-0.1,0.1-0.2v-3.5c-0.1-0.1-0.2-0.1-0.3-0.1
		c-0.1,0-0.3-0.1-0.4-0.1c-0.2,0-0.4,0-0.6,0.1c-0.2,0.1-0.4,0.2-0.5,0.4c-0.1,0.2-0.3,0.4-0.3,0.7c-0.1,0.3-0.1,0.6-0.1,1
		c0,0.4,0,0.7,0.1,1c0.1,0.3,0.2,0.5,0.3,0.6c0.1,0.2,0.3,0.3,0.4,0.4C167.3,58.7,167.5,58.7,167.6,58.7z M174.8,55.7
		c0,0.2,0,0.5,0,0.6c0,0.2,0,0.3,0,0.5h-2.9c0,0.7,0.2,1.2,0.4,1.5c0.3,0.3,0.6,0.5,1.1,0.5c0.2,0,0.3,0,0.5-0.1s0.3-0.1,0.4-0.1
		c0.1-0.1,0.2-0.1,0.2-0.2c0.1-0.1,0.1-0.1,0.1-0.1l0.4,0.7c0,0-0.1,0.1-0.2,0.2c-0.1,0.1-0.2,0.2-0.3,0.2c-0.1,0.1-0.3,0.1-0.5,0.2
		s-0.4,0.1-0.7,0.1c-0.4,0-0.7-0.1-1-0.2c-0.3-0.1-0.5-0.3-0.7-0.6s-0.4-0.6-0.5-1c-0.1-0.4-0.2-0.8-0.2-1.4c0-0.5,0.1-0.9,0.2-1.3
		c0.1-0.4,0.3-0.7,0.5-0.9c0.2-0.2,0.4-0.4,0.7-0.5c0.3-0.1,0.5-0.2,0.8-0.2c0.5,0,1,0.2,1.3,0.5S174.8,55,174.8,55.7z M173,54.4
		c-0.3,0-0.6,0.1-0.8,0.4c-0.2,0.3-0.3,0.7-0.4,1.2h2.1c0,0,0-0.1,0-0.2c0-0.1,0-0.2,0-0.2c0-0.4-0.1-0.7-0.2-0.9
		C173.5,54.5,173.3,54.4,173,54.4z M178.6,54.9c-0.1-0.1-0.2-0.2-0.3-0.3c-0.2-0.1-0.4-0.2-0.7-0.2c-0.3,0-0.4,0.1-0.6,0.2
		s-0.2,0.3-0.2,0.4c0,0.2,0.1,0.4,0.2,0.5c0.1,0.1,0.3,0.3,0.6,0.4l0.4,0.2c0.4,0.2,0.7,0.5,0.9,0.7c0.2,0.3,0.3,0.6,0.3,1
		c0,0.5-0.2,0.8-0.5,1.1c-0.3,0.3-0.8,0.5-1.4,0.5c-0.2,0-0.4,0-0.6-0.1s-0.3-0.1-0.5-0.2c-0.1-0.1-0.2-0.1-0.3-0.2
		c-0.1-0.1-0.2-0.1-0.2-0.2l0.5-0.8c0,0,0.1,0.1,0.2,0.2c0.1,0.1,0.1,0.1,0.2,0.2c0.1,0.1,0.2,0.1,0.3,0.1s0.3,0.1,0.4,0.1
		c0.3,0,0.5-0.1,0.7-0.2s0.2-0.3,0.2-0.5c0-0.1,0-0.3-0.1-0.4c0-0.1-0.1-0.2-0.2-0.3c-0.1-0.1-0.2-0.2-0.3-0.2
		c-0.1-0.1-0.2-0.2-0.4-0.2l-0.4-0.2c-0.4-0.2-0.6-0.5-0.8-0.7c-0.2-0.3-0.3-0.6-0.3-1c0-0.2,0-0.4,0.1-0.6c0.1-0.2,0.2-0.3,0.4-0.5
		c0.2-0.1,0.3-0.2,0.5-0.3c0.2-0.1,0.4-0.1,0.6-0.1c0.2,0,0.4,0,0.6,0.1c0.2,0,0.3,0.1,0.4,0.2c0.1,0.1,0.2,0.1,0.3,0.2
		c0.1,0.1,0.1,0.1,0.2,0.2L178.6,54.9z M182.8,54.6c0,0-0.1,0-0.2-0.1s-0.2,0-0.3,0c-0.3,0-0.5,0.1-0.7,0.2
		c-0.2,0.2-0.3,0.3-0.4,0.5v4.2h-1v-5.7h0.9v0.8h0c0-0.1,0.1-0.2,0.2-0.3c0.1-0.1,0.1-0.2,0.2-0.3c0.1-0.1,0.2-0.1,0.3-0.2
		c0.1,0,0.3-0.1,0.5-0.1c0.1,0,0.2,0,0.3,0s0.1,0,0.2,0.1L182.8,54.6z M187.2,55.7c0,0.2,0,0.5,0,0.6c0,0.2,0,0.3,0,0.5h-2.9
		c0,0.7,0.2,1.2,0.4,1.5c0.3,0.3,0.6,0.5,1.1,0.5c0.2,0,0.3,0,0.5-0.1s0.3-0.1,0.4-0.1c0.1-0.1,0.2-0.1,0.2-0.2
		c0.1-0.1,0.1-0.1,0.1-0.1l0.4,0.7c0,0-0.1,0.1-0.2,0.2c-0.1,0.1-0.2,0.2-0.3,0.2c-0.1,0.1-0.3,0.1-0.5,0.2s-0.4,0.1-0.7,0.1
		c-0.4,0-0.7-0.1-1-0.2c-0.3-0.1-0.5-0.3-0.7-0.6s-0.4-0.6-0.5-1c-0.1-0.4-0.2-0.8-0.2-1.4c0-0.5,0.1-0.9,0.2-1.3
		c0.1-0.4,0.3-0.7,0.5-0.9c0.2-0.2,0.4-0.4,0.7-0.5c0.3-0.1,0.5-0.2,0.8-0.2c0.5,0,1,0.2,1.3,0.5S187.2,55,187.2,55.7z M185.4,54.4
		c-0.3,0-0.6,0.1-0.8,0.4c-0.2,0.3-0.3,0.7-0.4,1.2h2.1c0,0,0-0.1,0-0.2c0-0.1,0-0.2,0-0.2c0-0.4-0.1-0.7-0.2-0.9
		C186,54.5,185.7,54.4,185.4,54.4z M192.6,54.5h-0.7c0.2,0.3,0.3,0.6,0.3,1c0,0.3,0,0.6-0.1,0.8c-0.1,0.2-0.2,0.4-0.4,0.6
		c-0.2,0.2-0.4,0.3-0.6,0.4c-0.2,0.1-0.5,0.1-0.8,0.1c-0.1,0-0.1,0-0.2,0c0,0-0.1,0-0.2,0c-0.1,0-0.2,0.1-0.3,0.2s-0.2,0.2-0.2,0.3
		c0,0.1,0,0.2,0.1,0.3c0.1,0.1,0.2,0.1,0.4,0.1h0.7c0.3,0,0.5,0,0.7,0.1c0.2,0.1,0.4,0.1,0.6,0.3c0.2,0.1,0.3,0.3,0.4,0.5
		s0.1,0.4,0.1,0.7c0,0.3-0.1,0.6-0.2,0.8c-0.1,0.3-0.3,0.5-0.6,0.7c-0.2,0.2-0.5,0.3-0.9,0.4c-0.3,0.1-0.7,0.2-1.1,0.2
		c-0.6,0-1.1-0.1-1.4-0.4c-0.3-0.3-0.5-0.6-0.5-1.1c0-0.2,0-0.4,0.1-0.6c0.1-0.2,0.2-0.3,0.3-0.4c0.1-0.1,0.2-0.2,0.3-0.3
		c0.1-0.1,0.2-0.1,0.3-0.2v0c-0.2-0.2-0.4-0.4-0.4-0.8c0-0.2,0-0.3,0.1-0.4c0.1-0.1,0.1-0.2,0.2-0.3c0.1-0.1,0.2-0.1,0.2-0.2
		c0.1,0,0.1-0.1,0.2-0.1v0c-0.3-0.1-0.5-0.3-0.7-0.6c-0.2-0.3-0.3-0.7-0.3-1.1c0-0.3,0.1-0.6,0.2-0.8c0.1-0.2,0.2-0.4,0.4-0.6
		c0.2-0.2,0.4-0.3,0.6-0.4c0.2-0.1,0.5-0.1,0.8-0.1s0.5,0,0.8,0.1h1.7L192.6,54.5z M190,59.3c-0.2,0-0.3,0-0.4,0
		c-0.1,0-0.1,0.1-0.2,0.1c-0.1,0.1-0.1,0.1-0.2,0.2c-0.1,0.1-0.1,0.2-0.1,0.3c0,0.1-0.1,0.2-0.1,0.4c0,0.6,0.3,0.9,1,0.9
		c0.6,0,1-0.1,1.3-0.3c0.3-0.2,0.4-0.5,0.4-0.8c0-0.3-0.1-0.5-0.3-0.6c-0.2-0.1-0.4-0.2-0.7-0.2H190z M191.2,55.5
		c0-0.4-0.1-0.7-0.3-0.9c-0.2-0.2-0.4-0.3-0.7-0.3c-0.3,0-0.5,0.1-0.7,0.3c-0.2,0.2-0.3,0.5-0.3,0.9c0,0.4,0.1,0.7,0.3,0.9
		c0.2,0.2,0.4,0.3,0.7,0.3c0.3,0,0.5-0.1,0.7-0.3C191.1,56.2,191.2,55.9,191.2,55.5z M194.7,59.5h-1v-5.7h1V59.5z M194.2,52.4
		c-0.2,0-0.4-0.1-0.5-0.2c-0.1-0.1-0.2-0.3-0.2-0.5c0-0.2,0.1-0.4,0.2-0.5s0.3-0.2,0.5-0.2c0.2,0,0.3,0.1,0.5,0.2s0.2,0.3,0.2,0.5
		c0,0.2-0.1,0.4-0.2,0.5C194.6,52.3,194.4,52.4,194.2,52.4z M199.8,55.7c0,0.2,0,0.5,0,0.6c0,0.2,0,0.3,0,0.5h-2.9
		c0,0.7,0.2,1.2,0.4,1.5c0.3,0.3,0.6,0.5,1.1,0.5c0.2,0,0.3,0,0.5-0.1c0.1,0,0.3-0.1,0.4-0.1c0.1-0.1,0.2-0.1,0.2-0.2
		c0.1-0.1,0.1-0.1,0.1-0.1l0.4,0.7c0,0-0.1,0.1-0.2,0.2c-0.1,0.1-0.2,0.2-0.3,0.2c-0.1,0.1-0.3,0.1-0.5,0.2
		c-0.2,0.1-0.4,0.1-0.7,0.1c-0.4,0-0.7-0.1-1-0.2c-0.3-0.1-0.5-0.3-0.7-0.6c-0.2-0.2-0.4-0.6-0.5-1c-0.1-0.4-0.2-0.8-0.2-1.4
		c0-0.5,0.1-0.9,0.2-1.3c0.1-0.4,0.3-0.7,0.5-0.9c0.2-0.2,0.4-0.4,0.7-0.5c0.3-0.1,0.5-0.2,0.8-0.2c0.5,0,1,0.2,1.3,0.5
		S199.8,55,199.8,55.7z M198,54.4c-0.3,0-0.6,0.1-0.8,0.4c-0.2,0.3-0.3,0.7-0.4,1.2h2.1c0,0,0-0.1,0-0.2c0-0.1,0-0.2,0-0.2
		c0-0.4-0.1-0.7-0.2-0.9C198.5,54.5,198.3,54.4,198,54.4z M203.6,54.6c0,0-0.1,0-0.2-0.1s-0.2,0-0.3,0c-0.3,0-0.5,0.1-0.7,0.2
		c-0.2,0.2-0.3,0.3-0.4,0.5v4.2h-1v-5.7h0.9v0.8h0c0-0.1,0.1-0.2,0.2-0.3c0.1-0.1,0.1-0.2,0.2-0.3c0.1-0.1,0.2-0.1,0.3-0.2
		c0.1,0,0.3-0.1,0.5-0.1c0.1,0,0.2,0,0.3,0s0.1,0,0.2,0.1L203.6,54.6z M208.6,59.5h-0.9v-0.6h0c0,0-0.1,0.1-0.2,0.2
		c-0.1,0.1-0.2,0.2-0.3,0.3c-0.1,0.1-0.3,0.2-0.4,0.2s-0.4,0.1-0.6,0.1c-0.3,0-0.5,0-0.7-0.1c-0.2-0.1-0.4-0.2-0.5-0.4
		c-0.1-0.2-0.3-0.4-0.3-0.6c-0.1-0.3-0.1-0.6-0.1-1v-3.7h1v3.7c0,0.5,0.1,0.8,0.2,1c0.2,0.2,0.4,0.3,0.7,0.3c0.3,0,0.5-0.1,0.7-0.2
		c0.2-0.1,0.3-0.3,0.5-0.4v-4.4h1V59.5z M213.2,59.5v-3.7c0-0.5-0.1-0.8-0.2-1c-0.2-0.2-0.4-0.3-0.7-0.3c-0.3,0-0.5,0.1-0.7,0.2
		c-0.2,0.1-0.3,0.3-0.5,0.4v4.4h-1v-5.7h0.9v0.6h0c0,0,0.1-0.1,0.2-0.2c0.1-0.1,0.2-0.2,0.3-0.3c0.1-0.1,0.3-0.2,0.5-0.2
		s0.4-0.1,0.6-0.1c0.3,0,0.5,0,0.7,0.1c0.2,0.1,0.4,0.2,0.5,0.4c0.1,0.2,0.3,0.4,0.3,0.6c0.1,0.3,0.1,0.6,0.1,1v3.7H213.2z
		 M219.7,54.5h-0.7c0.2,0.3,0.3,0.6,0.3,1c0,0.3,0,0.6-0.1,0.8c-0.1,0.2-0.2,0.4-0.4,0.6c-0.2,0.2-0.4,0.3-0.6,0.4
		c-0.2,0.1-0.5,0.1-0.8,0.1c-0.1,0-0.1,0-0.2,0c0,0-0.1,0-0.2,0c-0.1,0-0.2,0.1-0.3,0.2c-0.1,0.1-0.2,0.2-0.2,0.3
		c0,0.1,0,0.2,0.1,0.3c0.1,0.1,0.2,0.1,0.4,0.1h0.7c0.3,0,0.5,0,0.7,0.1s0.4,0.1,0.6,0.3c0.2,0.1,0.3,0.3,0.4,0.5s0.1,0.4,0.1,0.7
		c0,0.3-0.1,0.6-0.2,0.8c-0.1,0.3-0.3,0.5-0.6,0.7c-0.2,0.2-0.5,0.3-0.9,0.4s-0.7,0.2-1.1,0.2c-0.6,0-1.1-0.1-1.4-0.4
		c-0.3-0.3-0.5-0.6-0.5-1.1c0-0.2,0-0.4,0.1-0.6c0.1-0.2,0.2-0.3,0.3-0.4c0.1-0.1,0.2-0.2,0.3-0.3c0.1-0.1,0.2-0.1,0.3-0.2v0
		c-0.2-0.2-0.4-0.4-0.4-0.8c0-0.2,0-0.3,0.1-0.4c0.1-0.1,0.1-0.2,0.2-0.3c0.1-0.1,0.2-0.1,0.2-0.2c0.1,0,0.1-0.1,0.2-0.1v0
		c-0.3-0.1-0.5-0.3-0.7-0.6c-0.2-0.3-0.3-0.7-0.3-1.1c0-0.3,0.1-0.6,0.2-0.8c0.1-0.2,0.2-0.4,0.4-0.6c0.2-0.2,0.4-0.3,0.6-0.4
		c0.2-0.1,0.5-0.1,0.8-0.1s0.5,0,0.8,0.1h1.7L219.7,54.5z M217,59.3c-0.2,0-0.3,0-0.4,0c-0.1,0-0.1,0.1-0.2,0.1
		c-0.1,0.1-0.1,0.1-0.2,0.2c-0.1,0.1-0.1,0.2-0.1,0.3c0,0.1-0.1,0.2-0.1,0.4c0,0.6,0.3,0.9,1,0.9c0.6,0,1-0.1,1.3-0.3
		s0.4-0.5,0.4-0.8c0-0.3-0.1-0.5-0.3-0.6c-0.2-0.1-0.4-0.2-0.7-0.2H217z M218.3,55.5c0-0.4-0.1-0.7-0.3-0.9
		c-0.2-0.2-0.4-0.3-0.7-0.3c-0.3,0-0.5,0.1-0.7,0.3s-0.3,0.5-0.3,0.9c0,0.4,0.1,0.7,0.3,0.9s0.4,0.3,0.7,0.3c0.3,0,0.5-0.1,0.7-0.3
		C218.2,56.2,218.3,55.9,218.3,55.5z M65.6,66.5h-1.2v4.9h-1v-4.9h-0.7v-0.6l0.7-0.1v-1.1c0-0.3,0-0.6,0.1-0.8
		c0.1-0.2,0.2-0.4,0.3-0.5c0.1-0.1,0.3-0.2,0.5-0.3c0.2-0.1,0.4-0.1,0.6-0.1c0.2,0,0.4,0,0.5,0.1c0.1,0.1,0.2,0.1,0.3,0.1l-0.2,0.8
		c0,0-0.1-0.1-0.2-0.1c-0.1,0-0.2-0.1-0.3-0.1c-0.2,0-0.4,0.1-0.5,0.2c-0.1,0.1-0.2,0.4-0.2,0.8v1h1.3L65.6,66.5z M70.6,71.5h-0.9
		v-0.6h0c0,0-0.1,0.1-0.2,0.2c-0.1,0.1-0.2,0.2-0.3,0.3c-0.1,0.1-0.3,0.2-0.4,0.2s-0.4,0.1-0.6,0.1c-0.3,0-0.5,0-0.7-0.1
		c-0.2-0.1-0.4-0.2-0.5-0.4c-0.1-0.2-0.3-0.4-0.3-0.6c-0.1-0.3-0.1-0.6-0.1-1v-3.7h1v3.7c0,0.5,0.1,0.8,0.2,1
		c0.2,0.2,0.4,0.3,0.7,0.3c0.3,0,0.5-0.1,0.7-0.2c0.2-0.1,0.3-0.3,0.5-0.4v-4.4h1V71.5z M68.2,64.1c0,0.2-0.1,0.3-0.2,0.4
		c-0.1,0.1-0.2,0.2-0.4,0.2s-0.3-0.1-0.4-0.2s-0.2-0.3-0.2-0.4c0-0.2,0.1-0.3,0.2-0.4c0.1-0.1,0.2-0.2,0.4-0.2s0.3,0.1,0.4,0.2
		C68.2,63.8,68.2,63.9,68.2,64.1z M70.1,64.1c0,0.2-0.1,0.3-0.2,0.4s-0.2,0.2-0.4,0.2c-0.2,0-0.3-0.1-0.4-0.2s-0.2-0.3-0.2-0.4
		c0-0.2,0.1-0.3,0.2-0.4c0.1-0.1,0.2-0.2,0.4-0.2c0.2,0,0.3,0.1,0.4,0.2C70,63.8,70.1,63.9,70.1,64.1z M74.6,66.6c0,0-0.1,0-0.2-0.1
		c-0.1,0-0.2,0-0.3,0c-0.3,0-0.5,0.1-0.7,0.2c-0.2,0.2-0.3,0.3-0.4,0.5v4.2h-1v-5.7h0.9v0.8h0c0-0.1,0.1-0.2,0.2-0.3
		c0.1-0.1,0.1-0.2,0.2-0.3c0.1-0.1,0.2-0.1,0.3-0.2c0.1,0,0.3-0.1,0.5-0.1c0.1,0,0.2,0,0.3,0c0.1,0,0.1,0,0.2,0.1L74.6,66.6z
		 M80.5,67.3l2.8,4.2H82l-2.4-3.7H79v3.7h-1v-8.2h1v3.7h0.6l2.3-3.7h1.2L80.5,67.3z M88,71.5h-0.9v-0.6h0c0,0-0.1,0.1-0.2,0.2
		c-0.1,0.1-0.2,0.2-0.3,0.3c-0.1,0.1-0.3,0.2-0.4,0.2s-0.4,0.1-0.6,0.1c-0.3,0-0.5,0-0.7-0.1c-0.2-0.1-0.4-0.2-0.5-0.4
		c-0.1-0.2-0.3-0.4-0.3-0.6c-0.1-0.3-0.1-0.6-0.1-1v-3.7h1v3.7c0,0.5,0.1,0.8,0.2,1c0.2,0.2,0.4,0.3,0.7,0.3c0.3,0,0.5-0.1,0.7-0.2
		c0.2-0.1,0.3-0.3,0.5-0.4v-4.4h1V71.5z M90.4,70.1c0,0.2,0,0.4,0.1,0.5c0.1,0.1,0.2,0.1,0.4,0.1c0.1,0,0.2,0,0.2,0s0.1,0,0.1,0
		l0.1,0.7c0,0-0.1,0.1-0.3,0.1c-0.1,0-0.3,0.1-0.5,0.1c-0.3,0-0.6-0.1-0.8-0.3c-0.2-0.2-0.3-0.6-0.3-1.1V63l1-0.1V70.1z M94.6,66.5
		h-1.2v3.2c0,0.4,0.1,0.7,0.2,0.8c0.1,0.1,0.3,0.2,0.5,0.2c0.1,0,0.3,0,0.4-0.1c0.1,0,0.2-0.1,0.2-0.1l0.1,0.8c0,0-0.1,0.1-0.3,0.1
		c-0.2,0.1-0.4,0.1-0.6,0.1c-0.5,0-0.9-0.1-1.1-0.4c-0.2-0.3-0.4-0.7-0.4-1.4v-3.3h-0.7v-0.6l0.7-0.1l0.1-1.6h0.9v1.6h1.4L94.6,66.5
		z M99.7,71.5h-0.9v-0.6h0c0,0-0.1,0.1-0.2,0.2c-0.1,0.1-0.2,0.2-0.3,0.3c-0.1,0.1-0.3,0.2-0.4,0.2s-0.4,0.1-0.6,0.1
		c-0.3,0-0.5,0-0.7-0.1c-0.2-0.1-0.4-0.2-0.5-0.4c-0.1-0.2-0.3-0.4-0.3-0.6c-0.1-0.3-0.1-0.6-0.1-1v-3.7h1v3.7c0,0.5,0.1,0.8,0.2,1
		c0.2,0.2,0.4,0.3,0.7,0.3c0.3,0,0.5-0.1,0.7-0.2c0.2-0.1,0.3-0.3,0.5-0.4v-4.4h1V71.5z M103.7,66.6c0,0-0.1,0-0.2-0.1
		c-0.1,0-0.2,0-0.3,0c-0.3,0-0.5,0.1-0.7,0.2c-0.2,0.2-0.3,0.3-0.4,0.5v4.2h-1v-5.7h0.9v0.8h0c0-0.1,0.1-0.2,0.2-0.3
		c0.1-0.1,0.1-0.2,0.2-0.3c0.1-0.1,0.2-0.1,0.3-0.2c0.1,0,0.3-0.1,0.5-0.1c0.1,0,0.2,0,0.3,0c0.1,0,0.1,0,0.2,0.1L103.7,66.6z
		 M110.9,71.5H110v-0.6h0c0,0-0.1,0.1-0.2,0.2c-0.1,0.1-0.2,0.2-0.3,0.3c-0.1,0.1-0.3,0.2-0.4,0.2s-0.4,0.1-0.6,0.1
		c-0.3,0-0.5,0-0.7-0.1c-0.2-0.1-0.4-0.2-0.5-0.4c-0.1-0.2-0.3-0.4-0.3-0.6c-0.1-0.3-0.1-0.6-0.1-1v-3.7h1v3.7c0,0.5,0.1,0.8,0.2,1
		c0.2,0.2,0.4,0.3,0.7,0.3c0.3,0,0.5-0.1,0.7-0.2c0.2-0.1,0.3-0.3,0.5-0.4v-4.4h1V71.5z M115.5,71.5v-3.7c0-0.5-0.1-0.8-0.2-1
		c-0.2-0.2-0.4-0.3-0.7-0.3c-0.3,0-0.5,0.1-0.7,0.2s-0.3,0.3-0.5,0.4v4.4h-1v-5.7h0.9v0.6h0c0,0,0.1-0.1,0.2-0.2
		c0.1-0.1,0.2-0.2,0.3-0.3s0.3-0.2,0.5-0.2s0.4-0.1,0.6-0.1c0.3,0,0.5,0,0.7,0.1c0.2,0.1,0.4,0.2,0.5,0.4c0.1,0.2,0.3,0.4,0.3,0.6
		c0.1,0.3,0.1,0.6,0.1,1v3.7H115.5z M117.6,68.7c0-0.6,0.1-1.1,0.2-1.5c0.2-0.4,0.3-0.7,0.6-0.9s0.5-0.4,0.8-0.5
		c0.3-0.1,0.6-0.1,0.9-0.1c0.2,0,0.3,0,0.5,0c0.1,0,0.2,0.1,0.3,0.1V63l1-0.1v8.5H121v-0.6h0c0,0-0.1,0.1-0.1,0.2
		c-0.1,0.1-0.2,0.2-0.3,0.2s-0.2,0.2-0.4,0.2c-0.2,0.1-0.4,0.1-0.6,0.1c-0.3,0-0.5-0.1-0.8-0.2c-0.2-0.1-0.5-0.3-0.6-0.5
		c-0.2-0.2-0.3-0.5-0.4-0.9C117.7,69.7,117.6,69.2,117.6,68.7z M119.9,70.7c0.2,0,0.3,0,0.4-0.1c0.1,0,0.2-0.1,0.3-0.1
		c0.1-0.1,0.2-0.1,0.2-0.2s0.1-0.1,0.1-0.2v-3.5c-0.1-0.1-0.2-0.1-0.3-0.1c-0.1,0-0.3-0.1-0.4-0.1c-0.2,0-0.4,0-0.6,0.1
		c-0.2,0.1-0.4,0.2-0.5,0.4c-0.1,0.2-0.3,0.4-0.3,0.7c-0.1,0.3-0.1,0.6-0.1,1c0,0.4,0,0.7,0.1,1c0.1,0.3,0.2,0.5,0.3,0.6
		c0.1,0.2,0.3,0.3,0.4,0.4C119.5,70.7,119.7,70.7,119.9,70.7z M132.9,63.2v8.2h-1v-3.9c0-0.2,0-0.5,0-0.7s0-0.5,0-0.7
		c0-0.2,0-0.4,0-0.5s0-0.3,0-0.4h0c0,0.2-0.1,0.5-0.2,0.9c-0.1,0.4-0.3,0.8-0.4,1.3l-1.4,4h-0.8l-1.4-4c-0.2-0.5-0.3-0.9-0.4-1.3
		c-0.1-0.4-0.2-0.7-0.2-0.9h0c0,0.1,0,0.2,0,0.4c0,0.2,0,0.3,0,0.5c0,0.2,0,0.4,0,0.7s0,0.5,0,0.7v3.9h-1v-8.2h1.2l1.9,5.7
		c0.1,0.3,0.2,0.5,0.2,0.8c0.1,0.2,0.1,0.5,0.1,0.6h0c0-0.2,0-0.4,0.1-0.6c0.1-0.2,0.1-0.5,0.2-0.8l1.9-5.7H132.9z M138.2,67.7
		c0,0.2,0,0.5,0,0.6s0,0.3,0,0.5h-2.9c0,0.7,0.2,1.2,0.4,1.5c0.3,0.3,0.6,0.5,1.1,0.5c0.2,0,0.3,0,0.5-0.1c0.1,0,0.3-0.1,0.4-0.1
		c0.1-0.1,0.2-0.1,0.2-0.2c0.1-0.1,0.1-0.1,0.1-0.1l0.4,0.7c0,0-0.1,0.1-0.2,0.2c-0.1,0.1-0.2,0.2-0.3,0.2c-0.1,0.1-0.3,0.1-0.5,0.2
		c-0.2,0.1-0.4,0.1-0.7,0.1c-0.4,0-0.7-0.1-1-0.2c-0.3-0.1-0.5-0.3-0.7-0.6s-0.4-0.6-0.5-1c-0.1-0.4-0.2-0.8-0.2-1.4
		c0-0.5,0.1-0.9,0.2-1.3c0.1-0.4,0.3-0.7,0.5-0.9c0.2-0.2,0.4-0.4,0.7-0.5c0.3-0.1,0.5-0.2,0.8-0.2c0.5,0,1,0.2,1.3,0.5
		C138.1,66.5,138.2,67,138.2,67.7z M136.4,66.4c-0.3,0-0.6,0.1-0.8,0.4s-0.3,0.7-0.4,1.2h2.1c0,0,0-0.1,0-0.2c0-0.1,0-0.2,0-0.2
		c0-0.4-0.1-0.7-0.2-0.9C137,66.5,136.7,66.4,136.4,66.4z M139.3,68.7c0-0.6,0.1-1.1,0.2-1.5c0.2-0.4,0.3-0.7,0.6-0.9
		c0.2-0.2,0.5-0.4,0.8-0.5c0.3-0.1,0.6-0.1,0.9-0.1c0.2,0,0.3,0,0.5,0c0.1,0,0.2,0.1,0.3,0.1V63l1-0.1v8.5h-0.9v-0.6h0
		c0,0-0.1,0.1-0.1,0.2c-0.1,0.1-0.2,0.2-0.3,0.2s-0.2,0.2-0.4,0.2c-0.2,0.1-0.4,0.1-0.6,0.1c-0.3,0-0.5-0.1-0.8-0.2
		c-0.2-0.1-0.5-0.3-0.6-0.5c-0.2-0.2-0.3-0.5-0.4-0.9C139.3,69.7,139.3,69.2,139.3,68.7z M141.5,70.7c0.2,0,0.3,0,0.4-0.1
		c0.1,0,0.2-0.1,0.3-0.1c0.1-0.1,0.2-0.1,0.2-0.2s0.1-0.1,0.1-0.2v-3.5c-0.1-0.1-0.2-0.1-0.3-0.1c-0.1,0-0.3-0.1-0.4-0.1
		c-0.2,0-0.4,0-0.6,0.1c-0.2,0.1-0.4,0.2-0.5,0.4c-0.1,0.2-0.3,0.4-0.3,0.7c-0.1,0.3-0.1,0.6-0.1,1c0,0.4,0,0.7,0.1,1
		c0.1,0.3,0.2,0.5,0.3,0.6c0.1,0.2,0.3,0.3,0.4,0.4C141.2,70.7,141.4,70.7,141.5,70.7z M146,71.5h-1v-5.7h1V71.5z M145.5,64.4
		c-0.2,0-0.4-0.1-0.5-0.2c-0.1-0.1-0.2-0.3-0.2-0.5c0-0.2,0.1-0.4,0.2-0.5c0.1-0.1,0.3-0.2,0.5-0.2c0.2,0,0.3,0.1,0.5,0.2
		c0.1,0.1,0.2,0.3,0.2,0.5c0,0.2-0.1,0.4-0.2,0.5C145.9,64.3,145.7,64.4,145.5,64.4z M151.1,67.7c0,0.2,0,0.5,0,0.6s0,0.3,0,0.5
		h-2.9c0,0.7,0.2,1.2,0.4,1.5c0.3,0.3,0.6,0.5,1.1,0.5c0.2,0,0.3,0,0.5-0.1c0.1,0,0.3-0.1,0.4-0.1c0.1-0.1,0.2-0.1,0.2-0.2
		c0.1-0.1,0.1-0.1,0.1-0.1l0.4,0.7c0,0-0.1,0.1-0.2,0.2c-0.1,0.1-0.2,0.2-0.3,0.2c-0.1,0.1-0.3,0.1-0.5,0.2
		c-0.2,0.1-0.4,0.1-0.7,0.1c-0.4,0-0.7-0.1-1-0.2c-0.3-0.1-0.5-0.3-0.7-0.6s-0.4-0.6-0.5-1c-0.1-0.4-0.2-0.8-0.2-1.4
		c0-0.5,0.1-0.9,0.2-1.3c0.1-0.4,0.3-0.7,0.5-0.9s0.4-0.4,0.7-0.5c0.3-0.1,0.5-0.2,0.8-0.2c0.5,0,1,0.2,1.3,0.5S151.1,67,151.1,67.7
		z M149.3,66.4c-0.3,0-0.6,0.1-0.8,0.4s-0.3,0.7-0.4,1.2h2.1c0,0,0-0.1,0-0.2c0-0.1,0-0.2,0-0.2c0-0.4-0.1-0.7-0.2-0.9
		C149.9,66.5,149.6,66.4,149.3,66.4z M155.5,71.5v-3.7c0-0.5-0.1-0.8-0.2-1c-0.2-0.2-0.4-0.3-0.7-0.3c-0.3,0-0.5,0.1-0.7,0.2
		c-0.2,0.1-0.3,0.3-0.5,0.4v4.4h-1v-5.7h0.9v0.6h0c0,0,0.1-0.1,0.2-0.2c0.1-0.1,0.2-0.2,0.3-0.3c0.1-0.1,0.3-0.2,0.5-0.2
		c0.2-0.1,0.4-0.1,0.6-0.1c0.3,0,0.5,0,0.7,0.1c0.2,0.1,0.4,0.2,0.5,0.4c0.1,0.2,0.3,0.4,0.3,0.6c0.1,0.3,0.1,0.6,0.1,1v3.7H155.5z"
		/>
</g>
</svg>
