<?xml version="1.0" encoding="utf-8"?>
<!-- Generator: Adobe Illustrator 23.0.2, SVG Export Plug-In . SVG Version: 6.00 Build 0)  -->
<svg version="1.1" baseProfile="tiny" id="SMB" xmlns="http://www.w3.org/2000/svg" xmlns:xlink="http://www.w3.org/1999/xlink"
	 x="0px" y="0px" viewBox="0 0 1663.44 472.44" xml:space="preserve">
<g>
	<path fill="#3F4D75" d="M94.49,94.49v204.64c21.62-26.46,40.27-37.46,48.1-40.94c0.73-0.32,0.76-0.83,0.72-1.04
		c-0.06-0.38-0.43-0.76-1.37-0.74c-3.85,0.05-11.81,2.21-17.01,4.13c-1.21,0.45-1.4-0.36-0.91-1.28c1.12-2.09,6.21-6.88,21.42-13.02
		c25.12-10.14,51.09-9.03,62.97-3.07c5.27,2.65,7.48,7.92,8.12,9.82c0.08,0.24-0.03,0.37-0.21,0.37
		c-18.45-0.21-26.76,0.73-32.27,2.41c-1.64,0.5-1.8,1.72-0.36,2.82c2.6,1.98,10.69,4.05,13.92,4.59c0.97,0.16,1.49-0.16,2.09-0.84
		c0.69-0.79,1.57-1.92,2.34-2.67c0.6-0.59,0.91-0.65,2.05-0.73c1.71-0.12,5.65-0.18,9.12-0.12c16.16,0.29,34.2,4.28,34.2,27.17
		c0,8.23-3.37,16.27-4.96,18.73c-1.04,1.62-2.7,1.54-2.6-0.87c0.43-11.24-1.38-15.85-19.16-15.85c-8.99,0-23.19,1.3-29.56,4.29
		c-2.36,1.11-2.59,3.14-0.2,2.93c3.54-0.31,17.43-1.26,27.26-1.26c6.5,0,11.62,0.65,13.47,3.24c0.45,0.63,0.54,1.8-1.02,1.58
		c-0.63-0.09-2.27-0.28-4.57-0.28c-20.47,0-40.47,12.07-40.47,32.96c0,33.21,48.88,46.5,110,46.5c49.22,0,82.36-10.57,82.36-10.57
		l0-272.9H94.49z"/>
	<path d="M1568.96,153.08v-30.16c0-11.79-6.32-18.12-16.32-18.12c-4.93,0-9.54,1.64-13.05,4.68l-1.8-4.06l-8.74,0.55v47.1h12.18
		v-33.91c1.64-2.27,4.92-3.59,7.97-3.59c5,0,7.66,2.11,7.66,7.34v30.16H1568.96z M1517.08,95.51c0-3.43-2.11-5.23-6.87-5.23
		c-4.68,0-6.95,1.87-6.95,5.23c0,3.82,2.26,5.15,6.95,5.15C1514.98,100.66,1517.08,98.95,1517.08,95.51 M1516.38,153.08v-47.33
		l-12.41,0.54v46.79H1516.38z M1490.37,153.08v-61.4l-12.26,0.55v60.85H1490.37z M1452.01,153.08v-23.24
		c0-7.72,4.69-12.23,11.02-12.23c1.88,0,3.67,0.3,5.16,0.76l0.78-11.93c-1.25-0.39-3.05-0.7-5.16-0.7c-5.39,0-10,2.81-12.97,8.51
		h-0.23l-1.09-7.88l-9.68,0.47v46.24H1452.01z M1402.63,124.58c0.55-6.88,2.81-9.62,8.68-9.62c5.08,0,8.21,2.66,8.36,9.62H1402.63z
		 M1413.97,153.94c6.02,0,11.48-1.25,15.46-3.04l-1.33-9.76c-4.06,1.56-8.2,2.35-12.65,2.35c-8.13,0-11.96-2.97-12.58-10.87h27.58
		c0.23-1.64,0.31-3.9,0.31-5.7c0-15-7.42-22.03-19.53-22.03c-14.22,0-20.86,8.82-20.86,23.9
		C1390.38,145.36,1397.64,153.94,1413.97,153.94 M1368.03,111.84c0,4.61-2.03,6.49-6.72,6.49h-10.94v-12.74H1361
		C1365.92,105.58,1368.03,107.23,1368.03,111.84 M1369.52,135.04c0,5.55-2.34,7.27-7.58,7.27h-11.65v-14.23h11.33
		C1367.33,128.08,1369.52,130.12,1369.52,135.04 M1382.71,136.06c0-7.43-3.44-12.03-9.92-13.83v-0.16
		c4.68-1.95,7.81-6.01,7.81-12.58c0-9.3-6.4-14.99-19.14-14.99h-23.82v58.58h24.14C1376.54,153.08,1382.71,146.61,1382.71,136.06
		 M1303.81,105.75h-12.1v30.39c0,4.84-2.5,7.11-7.82,7.11c-5.32,0-7.82-2.42-7.82-7.11v-30.39h-12.1v30.62
		c0,11.25,6.48,17.57,19.92,17.57c13.44,0,19.92-6.09,19.92-17.57V105.75z M1254.36,114.18v-8.43h-34.06l-0.39,10.07h20.39
		l0.08,0.16l-3.75,4.92l-17.34,23.68v8.51h35.47l0.31-10.07h-21.72l-0.08-0.23l3.75-4.85L1254.36,114.18z M1187.71,153.08v-30.16
		c0-11.79-6.32-18.12-16.32-18.12c-4.92,0-9.54,1.64-13.05,4.68l-1.8-4.06l-8.74,0.55v47.1h12.18v-33.91
		c1.64-2.27,4.92-3.59,7.97-3.59c5,0,7.66,2.11,7.66,7.34v30.16H1187.71z M1110.6,124.58c0.55-6.88,2.81-9.62,8.68-9.62
		c5.08,0,8.21,2.66,8.36,9.62H1110.6z M1121.94,153.94c6.02,0,11.48-1.25,15.46-3.04l-1.33-9.76c-4.06,1.56-8.2,2.35-12.65,2.35
		c-8.13,0-11.96-2.97-12.58-10.87h27.58c0.23-1.64,0.31-3.9,0.31-5.7c0-15-7.42-22.03-19.53-22.03c-14.22,0-20.85,8.82-20.85,23.9
		C1098.35,145.36,1105.61,153.94,1121.94,153.94 M1063.26,124.58c0.55-6.88,2.81-9.62,8.68-9.62c5.08,0,8.21,2.66,8.37,9.62H1063.26
		z M1074.6,153.94c6.02,0,11.48-1.25,15.46-3.04l-1.33-9.76c-4.06,1.56-8.2,2.35-12.65,2.35c-8.13,0-11.96-2.97-12.58-10.87h27.58
		c0.23-1.64,0.31-3.9,0.31-5.7c0-15-7.42-22.03-19.53-22.03c-14.22,0-20.85,8.82-20.85,23.9
		C1051.01,145.36,1058.27,153.94,1074.6,153.94 M1044.2,138.41c0-15.89-21.64-11.71-21.64-18.71c0-2.36,2.19-3.88,6.18-3.88
		c3.52,0,8.75,0.76,12.65,2.36l1.01-9.85c-3.98-1.64-8.66-2.58-13.43-2.58c-12.19,0-17.96,6.09-17.96,14.48
		c0,16.12,21.95,11.86,21.95,19.24c0,2.74-2.03,4.64-6.88,4.64c-4.06,0-9.61-1.06-13.51-3.27l-1.25,9.91
		c3.98,2.18,9.13,3.28,14.84,3.28C1038.97,154.02,1044.2,147.7,1044.2,138.41 M1001.93,105.75h-12.1v30.39
		c0,4.84-2.5,7.11-7.82,7.11c-5.32,0-7.82-2.42-7.82-7.11v-30.39h-12.1v30.62c0,11.25,6.48,17.57,19.92,17.57
		s19.92-6.09,19.92-17.57V105.75z M889.68,94.5v58.58h11.63v-29.76l-0.08-6.33l0.16-0.08l2.19,5.94l11.96,30.23h8.75l12.04-30.31
		l2.19-5.94l0.23,0.08l-0.16,6.33v29.84h12.02V94.5h-14.52l-13.67,34.21l-2.19,5.86h-0.24l-2.19-5.86L904.2,94.5H889.68z
		 M829.44,124.58c0.55-6.88,2.81-9.62,8.68-9.62c5.08,0,8.21,2.66,8.36,9.62H829.44z M840.77,153.94c6.02,0,11.48-1.25,15.46-3.04
		l-1.33-9.76c-4.06,1.56-8.2,2.35-12.65,2.35c-8.13,0-11.96-2.97-12.59-10.87h27.58c0.23-1.64,0.31-3.9,0.31-5.7
		c0-15-7.42-22.03-19.53-22.03c-14.22,0-20.85,8.82-20.85,23.9C817.18,145.36,824.44,153.94,840.77,153.94 M808.5,153.08v-30.16
		c0-11.4-5.85-18.12-15.85-18.12c-3.99,0-8.29,1.09-11.8,4.06l-0.23-0.16l0.16-6.25V91.69l-12.1,0.62v60.77h12.1v-33.91
		c1.48-2.03,4.53-3.59,8.05-3.59c5.16,0,7.58,2.5,7.58,7.34v30.16H808.5z M759.12,107.78c-2.97-1.17-7.42-2.03-11.41-2.03
		c-15.15,0-21.63,8.82-21.63,24.14c0,16.17,7.42,24.13,21.4,24.13c5.08,0,9.3-1.01,12.11-2.73l-0.86-9.4
		c-2.5,1.14-5.47,1.75-8.59,1.75c-7.34,0-11.48-3.87-11.48-13.75c0-9.72,2.89-13.29,11.72-13.29c2.73,0,5.62,0.61,8.05,1.44
		L759.12,107.78z M716.23,95.51c0-3.43-2.11-5.23-6.87-5.23c-4.68,0-6.95,1.87-6.95,5.23c0,3.82,2.26,5.15,6.95,5.15
		C714.13,100.66,716.23,98.95,716.23,95.51 M715.53,153.08v-47.33l-12.41,0.54v46.79H715.53z M689.52,153.08v-61.4l-12.26,0.55
		v60.85H689.52z M668.11,114.8v-9.05h-10.55V94.5l-9.52,0.84l-2.03,10.41h-5.86v9.05h5.31v23.96c0,8.85,4.61,14.32,14.05,14.32
		c3.36,0,6.48-0.62,8.12-1.33l-0.7-8.81c-0.86,0.3-2.5,0.53-3.75,0.53c-3.75,0-5.62-1.52-5.62-5.1V114.8H668.11z M620.46,138.71
		c0,2.43-3.75,4.78-7.9,4.78c-3.99,0-6.72-1.54-6.72-5.86c0-3.89,2.5-5.86,7.9-5.86c3.21,0,5.55,0.51,6.72,0.95V138.71z
		 M623.2,153.08h9.29V123.8c0-12.97-4.84-18.98-18.82-18.98c-6.1,0-11.49,1.09-16.25,3.12l1.01,9.68c4.37-1.8,7.81-2.58,13.04-2.58
		c6.49,0,8.99,2.19,8.99,6.96v2.73c-2.5-0.78-5.55-1.33-9.07-1.33c-10.78,0-16.87,6.01-16.87,14.75c0,9.85,5.7,14.92,14.68,14.92
		c5.39,0,9.93-1.95,12.82-5.38l0.23,0.08L623.2,153.08z M573.51,138.71c0,2.43-3.75,4.78-7.9,4.78c-3.99,0-6.72-1.54-6.72-5.86
		c0-3.89,2.5-5.86,7.9-5.86c3.21,0,5.55,0.51,6.72,0.95V138.71z M576.24,153.08h9.29V123.8c0-12.97-4.84-18.98-18.82-18.98
		c-6.1,0-11.49,1.09-16.25,3.12l1.02,9.68c4.37-1.8,7.81-2.58,13.04-2.58c6.49,0,8.99,2.19,8.99,6.96v2.73
		c-2.5-0.78-5.55-1.33-9.07-1.33c-10.78,0-16.87,6.01-16.87,14.75c0,9.85,5.7,14.92,14.68,14.92c5.39,0,9.93-1.95,12.82-5.38
		l0.24,0.08L576.24,153.08z M541.63,114.8v-9.05h-10.55V94.5l-9.52,0.84l-2.03,10.41h-5.86v9.05h5.31v23.96
		c0,8.85,4.61,14.32,14.05,14.32c3.36,0,6.48-0.62,8.12-1.33l-0.7-8.81c-0.86,0.3-2.5,0.53-3.75,0.53c-3.75,0-5.62-1.52-5.62-5.1
		V114.8H541.63z M509.15,135.51c0-19.85-26.95-15.63-26.95-24.77c0-3.13,1.95-5.63,9.23-5.63c4.46,0,9.3,0.94,14.14,2.5l1.64-11.09
		c-4.53-1.87-10.69-3.04-16.4-3.04c-14.84,0-21.25,8.04-21.25,17.96c0,19.62,26.95,15.71,26.95,24.93c0,4.06-2.81,6.41-9.23,6.41
		c-5.78,0-11.09-1.56-16.24-4.3l-1.72,11.32c5.07,2.73,11.32,4.37,18.12,4.37C501.11,154.18,509.15,147.08,509.15,135.51"/>
	<path d="M1329.46,222.14l-7.12,0.37v44.32h7.12V222.14z M705.74,222.14l-7.12,0.37v44.32h7.12V222.14z M502.89,228.21
		c0,8.63-3.83,11.1-11.78,11.1h-11.03v-22.06h11.03C499.29,217.26,502.89,220.04,502.89,228.21 M510.75,228.21
		c0-12.23-5.84-17.62-19.65-17.62h-18.67v56.24h7.64v-21.08h11.03C505.06,245.76,510.75,239.77,510.75,228.21 M545.93,229.92
		l0.45-7.18c-1.2-0.38-2.78-0.6-4.43-0.6c-6.07,0-10.95,3.75-13.72,10.14h-0.15l-0.6-9.54l-5.69,0.37v43.72h7.12v-22.25
		c0-9.43,5.62-15.25,12.6-15.25C543.08,229.34,544.58,229.48,545.93,229.92 M582.53,240.59h-22.43c0.45-8.35,3.83-12.31,11.4-12.31
		C577.95,228.29,582.38,231.68,582.53,240.59 M588.89,245.46c0.08-0.97,0.15-2.32,0.15-3.44c0-13.59-6.97-19.87-17.62-19.87
		c-12.3,0-18.45,7.77-18.45,21.14c0,16.73,6.07,24.45,20.77,24.45c5.4,0,10.05-1.27,13.8-3.29l-0.82-6
		c-3.82,1.88-7.65,2.85-12.15,2.85c-9.6,0-13.96-4.05-14.33-15.83H588.89z M634.42,252.14v-30h-7.04v29.85
		c0,6.08-3.53,9.15-10.28,9.15c-6.9,0-10.35-3.15-10.35-9.15v-29.85h-7.04v30c0,9.82,5.62,15.52,17.32,15.52
		C628.8,267.66,634.42,262.04,634.42,252.14 M685.94,252.63c0-12.19-16.49-14.19-16.49-18.03c0-3.1,9.75-6.87,9.75-14.34
		c0-5.93-5.55-10.65-13.58-10.65c-11.25,0-17.47,6.73-17.47,19.29v49.1h7.04v-49.77c0-8.35,3.45-12.49,10.28-12.49
		c4.28,0,6.98,2,6.98,4.73c0,5.99-10.58,9.53-10.58,15c0,6.95,16.88,8.2,16.88,17.36c0,5.03-4.43,7.46-10.65,7.46
		c-2.81,0-5.52-0.71-7.81-1.74l-0.44,6.49c2.85,1.2,6.41,1.76,9.45,1.76C679.27,266.83,685.94,261.44,685.94,252.63 M706.79,210.82
		c0-2.47-1.5-3.82-4.57-3.82c-3.07,0-4.57,1.35-4.57,3.82c0,2.85,1.5,3.82,4.57,3.82C705.29,214.63,706.79,213.44,706.79,210.82
		 M726.37,234.15c0-3.59,3.38-5.87,8.71-5.87c3.6,0,7.88,0.81,11.62,2.35l0.6-5.94c-3.59-1.65-7.72-2.55-12.07-2.55
		c-10.28,0-15.6,4.94-15.6,12.38c0,14.75,22.88,10.13,22.88,20.03c0,4.11-2.7,7.19-9.23,7.19c-4.28,0-9.38-1.32-12.75-3.82
		l-0.9,6.06c3.45,2.47,8.39,3.74,13.72,3.74c11.03,0,15.75-5.62,15.75-13.84C749.09,238.63,726.37,243.47,726.37,234.15
		 M764.92,244.54c0-11.32,3.6-15.88,13.27-15.88c3.23,0,6.45,0.81,9.08,1.98l0.45-6.33c-2.93-1.27-6.98-2.17-10.95-2.17
		c-13.35,0-19.19,7.62-19.19,22.39c0,16.1,6.44,23.27,18.96,23.27c4.73,0,8.93-1.27,11.55-3.07l-0.53-5.79c-2.7,1.62-6,2.5-9.52,2.5
		C769.49,261.44,764.92,256.89,764.92,244.54 M827.1,266.83h7.04v-29.62c0-10.2-5.32-15.89-15.07-15.89c-4.73,0-9.3,1.57-12.53,4.94
		l-0.15-0.07l0.08-5.99v-12.98l-7.04,0.45v59.17h7.04v-33.83c1.8-2.85,5.85-5.1,10.5-5.1c6.9,0,10.13,3.3,10.13,9.3V266.83z
		 M874.42,240.59h-22.43c0.45-8.35,3.83-12.31,11.4-12.31C869.85,228.29,874.27,231.68,874.42,240.59 M880.79,245.46
		c0.07-0.97,0.15-2.32,0.15-3.44c0-13.59-6.96-19.87-17.62-19.87c-12.3,0-18.44,7.77-18.44,21.14c0,16.73,6.07,24.45,20.77,24.45
		c5.4,0,10.05-1.27,13.8-3.29l-0.82-6c-3.82,1.88-7.64,2.85-12.15,2.85c-9.61,0-13.96-4.05-14.33-15.83H880.79z M916.41,229.92
		l0.45-7.18c-1.2-0.38-2.77-0.6-4.43-0.6c-6.07,0-10.95,3.75-13.72,10.14h-0.15l-0.6-9.54l-5.69,0.37v43.72h7.12v-22.25
		c0-9.43,5.62-15.25,12.6-15.25C913.56,229.34,915.06,229.48,916.41,229.92 M995.69,266.83l-20.55-29.62l19.42-26.62h-9.15
		l-17.25,23.78h-8.32v-23.78h-7.64v56.24h7.64v-25.95h8.17l18.08,25.95H995.69z M1038.5,252.14v-30h-7.04v29.85
		c0,6.08-3.53,9.15-10.28,9.15c-6.9,0-10.35-3.15-10.35-9.15v-29.85h-7.04v30c0,9.82,5.62,15.52,17.32,15.52
		C1032.88,267.66,1038.5,262.04,1038.5,252.14 M1053.2,266.83h7.12v-59.62l-7.12,0.45V266.83z M1085.29,227.69h11.02v-5.54h-11.02
		v-11.55l-5.54,0.59l-1.35,10.96h-6.45v5.54h6.22v27.07c0,7.81,3.97,12.08,11.62,12.08c2.4,0,4.88-0.45,6.22-1.12l-0.45-5.38
		c-0.9,0.37-2.47,0.59-3.75,0.59c-4.05,0-6.52-1.83-6.52-6.38V227.69z M1140.48,252.14v-30h-7.04v29.85c0,6.08-3.53,9.15-10.28,9.15
		c-6.9,0-10.35-3.15-10.35-9.15v-29.85h-7.04v30c0,9.82,5.62,15.52,17.32,15.52C1134.86,267.66,1140.48,262.04,1140.48,252.14
		 M1177.9,229.92l0.45-7.18c-1.2-0.38-2.77-0.6-4.42-0.6c-6.08,0-10.95,3.75-13.72,10.14h-0.15l-0.6-9.54l-5.69,0.37v43.72h7.12
		v-22.25c0-9.43,5.62-15.25,12.6-15.25C1175.05,229.34,1176.55,229.48,1177.9,229.92 M1218.79,244.49
		c0,13.88-4.65,17.25-11.63,17.25c-5.48,0-9.23-2.55-11.03-5.48v-23.18c2.33-3.38,6.23-5.33,10.95-5.33
		C1214.44,227.76,1218.79,230.91,1218.79,244.49 M1225.98,244.34L1225.98,244.34c0-16.95-6.59-23.02-17.02-23.02
		c-4.95,0-9.53,1.65-12.75,5.02l-0.15-0.08l0.08-5.99v-13.12l-7.04,0.45v59.24h4.72l1.12-4.65l0.22-0.07
		c2.77,3.45,7.43,5.55,12.98,5.55C1219.46,267.66,1225.98,261.14,1225.98,244.34 M1264.39,240.59h-22.43
		c0.45-8.35,3.83-12.31,11.41-12.31C1259.81,228.29,1264.24,231.68,1264.39,240.59 M1270.75,245.46c0.07-0.97,0.15-2.32,0.15-3.44
		c0-13.59-6.97-19.87-17.62-19.87c-12.3,0-18.45,7.77-18.45,21.14c0,16.73,6.07,24.45,20.77,24.45c5.4,0,10.05-1.27,13.8-3.29
		l-0.82-6c-3.82,1.88-7.65,2.85-12.15,2.85c-9.6,0-13.96-4.05-14.33-15.83H1270.75z M1286.71,234.15c0-3.59,3.38-5.87,8.71-5.87
		c3.6,0,7.88,0.81,11.62,2.35l0.6-5.94c-3.59-1.65-7.72-2.55-12.07-2.55c-10.28,0-15.6,4.94-15.6,12.38
		c0,14.75,22.88,10.13,22.88,20.03c0,4.11-2.7,7.19-9.23,7.19c-4.28,0-9.38-1.32-12.75-3.82l-0.9,6.06
		c3.45,2.47,8.39,3.74,13.72,3.74c11.03,0,15.75-5.62,15.75-13.84C1309.44,238.63,1286.71,243.47,1286.71,234.15 M1330.51,210.82
		c0-2.47-1.5-3.82-4.57-3.82c-3.07,0-4.57,1.35-4.57,3.82c0,2.85,1.5,3.82,4.57,3.82C1329.01,214.63,1330.51,213.44,1330.51,210.82
		 M1354.96,227.69h11.02v-5.54h-11.02v-11.55l-5.54,0.59l-1.35,10.96h-6.45v5.54h6.23v27.07c0,7.81,3.97,12.08,11.62,12.08
		c2.4,0,4.88-0.45,6.22-1.12l-0.45-5.38c-0.9,0.37-2.47,0.59-3.75,0.59c-4.05,0-6.52-1.83-6.52-6.38V227.69z M1386.32,255.74
		l19.8-28.43v-5.17h-30.52l-0.23,6.14h22.5l0.08,0.15l-3.52,4.8l-19.88,28.51v5.09h31.8l0.22-6.14h-23.7l-0.07-0.23L1386.32,255.74z
		"/>
</g>
</svg>
