<svg id="SMB_MK" xmlns="http://www.w3.org/2000/svg" viewBox="0 0 1612.2 472.44"><defs><style>.cls-1{fill:#3f4d75;}.cls-2{fill:#1d1d1b;}.cls-3{fill:none;}</style></defs><title>SMB_MK_PMS_SC</title><path class="cls-1" d="M94.49,94.49V299.13c21.62-26.46,40.27-37.46,48.1-40.94.72-.32.76-.82.72-1s-.43-.75-1.37-.74c-3.85,0-11.81,2.21-17,4.13-1.21.45-1.41-.36-.91-1.28,1.11-2.09,6.2-6.88,21.42-13,25.12-10.14,51.09-9,63-3.07,5.27,2.65,7.48,7.92,8.12,9.82.08.24,0,.37-.21.37-18.45-.2-26.76.73-32.27,2.41-1.64.5-1.8,1.73-.35,2.82,2.6,2,10.69,4.05,13.92,4.59a2,2,0,0,0,2.09-.84c.69-.79,1.56-1.92,2.33-2.67.61-.59.91-.65,2.06-.73,1.71-.13,5.65-.19,9.12-.13,16.16.29,34.19,4.29,34.19,27.17a40.47,40.47,0,0,1-5,18.73c-1,1.62-2.7,1.54-2.6-.87.43-11.24-1.38-15.86-19.16-15.86-9,0-23.19,1.3-29.57,4.3-2.36,1.11-2.59,3.14-.2,2.93,3.54-.3,17.42-1.26,27.26-1.26,6.5,0,11.62.65,13.47,3.24.44.63.53,1.8-1,1.58a33.89,33.89,0,0,0-4.57-.28c-20.47,0-40.47,12.07-40.47,33,0,33.21,48.87,46.49,110,46.49,49.22,0,82.36-10.56,82.36-10.56V94.49Z"/><path class="cls-2" d="M1517.71,266.83V237.28c0-10.64-5.77-16-15.22-16a17.7,17.7,0,0,0-13,5.32h-.23l-1.2-4.72-5.09.37v44.54h7.12v-33.9c2.1-3.22,6.6-5,10.43-5,6.6,0,10.13,2.77,10.13,9.37v29.55Zm-49.58-56c0-2.47-1.5-3.82-4.57-3.82s-4.57,1.35-4.57,3.82c0,2.85,1.5,3.82,4.57,3.82s4.57-1.19,4.57-3.82m-1.05,56V222.14l-7.11.37v44.32Zm-24.37,0V207.22l-7.12.45v59.16Zm-36.3,0V244.58c0-9.43,5.62-15.25,12.6-15.25a14.32,14.32,0,0,1,4.42.59l.45-7.18a15.54,15.54,0,0,0-4.42-.6c-6.08,0-11,3.75-13.73,10.14h-.15l-.6-9.54-5.69.38v43.71ZM1359,240.59c.45-8.34,3.83-12.31,11.4-12.31,6.46,0,10.88,3.4,11,12.31Zm13.65,27.14a28.86,28.86,0,0,0,13.8-3.29l-.82-6a26.51,26.51,0,0,1-12.15,2.85c-9.6,0-14-4.05-14.33-15.83h28.65c.07-1,.15-2.32.15-3.44,0-13.59-7-19.88-17.62-19.88-12.3,0-18.45,7.77-18.45,21.15,0,16.73,6.07,24.44,20.77,24.44M1332.54,226c0,5.93-2.92,8.78-9.08,8.78H1310V217.33h13c6.6,0,9.6,2.41,9.6,8.63m2,24.3c0,7.43-3.75,10-10.35,10H1310V240.73h13.88c7.28,0,10.65,3,10.65,9.53m7.64.6c0-7.87-3.82-12.15-10.26-13.65v-.14c4.65-1.58,8-5.48,8-12.46,0-9.22-5.62-14-16.73-14h-20.62v56.24h21.52c13,0,18.07-6,18.07-16m-77.92-28.72h-7V252c0,6.08-3.53,9.15-10.28,9.15-6.9,0-10.35-3.15-10.35-9.15V222.14h-7v30c0,9.83,5.61,15.52,17.32,15.52s17.39-5.62,17.39-15.52Zm-46.34,5.17v-5.17h-30.53l-.22,6.14h22.5l.07.15-3.52,4.81-19.88,28.5v5.09h31.8l.23-6.14h-23.7l-.08-.22,3.53-4.73Zm-67.13,39.52V237.28c0-10.64-5.77-16-15.22-16a17.7,17.7,0,0,0-13,5.32h-.23l-1.19-4.72-5.1.37v44.54h7.12v-33.9c2.1-3.22,6.6-5,10.43-5,6.6,0,10.13,2.77,10.13,9.37v29.55Zm-75-26.24c.45-8.34,3.83-12.31,11.4-12.31,6.46,0,10.88,3.4,11,12.31Zm13.65,27.14a28.86,28.86,0,0,0,13.8-3.29l-.82-6a26.51,26.51,0,0,1-12.15,2.85c-9.6,0-14-4.05-14.33-15.83h28.65c.07-1,.15-2.32.15-3.44,0-13.59-7-19.88-17.62-19.88-12.3,0-18.45,7.77-18.45,21.15,0,16.73,6.07,24.44,20.77,24.44m-58.5-27.14c.45-8.34,3.83-12.31,11.4-12.31,6.46,0,10.88,3.4,11,12.31Zm13.66,27.14a28.85,28.85,0,0,0,13.79-3.29l-.82-6a26.51,26.51,0,0,1-12.15,2.85c-9.6,0-14-4.05-14.33-15.83h28.65c.07-1,.15-2.32.15-3.44,0-13.59-7-19.88-17.62-19.88-12.3,0-18.45,7.77-18.45,21.15,0,16.73,6.07,24.44,20.78,24.44m-29.26-13.84c0-15.26-22.72-10.42-22.72-19.74,0-3.59,3.37-5.87,8.7-5.87a31.87,31.87,0,0,1,11.62,2.35l.6-5.94a29,29,0,0,0-12.07-2.55c-10.28,0-15.6,5-15.6,12.38,0,14.75,22.88,10.13,22.88,20,0,4.11-2.7,7.19-9.23,7.19-4.28,0-9.38-1.32-12.75-3.81l-.9,6.06c3.45,2.47,8.4,3.74,13.72,3.74,11,0,15.75-5.61,15.75-13.84m-40.72-31.75h-7.05V252c0,6.08-3.52,9.15-10.27,9.15-6.91,0-10.36-3.15-10.36-9.15V222.14h-7v30c0,9.83,5.62,15.52,17.32,15.52s17.4-5.62,17.4-15.52ZM871.45,210.59v56.24h6.82V229.94l-.08-6.07.15-.08,2.18,5.7,15.15,37.34h5.4l15.23-37.64,2.18-5.7.22.08-.15,6.07v37.19h7V210.59H916.9l-16.13,39.75-2.1,5.62h-.22l-2.18-5.62-16.13-39.75Zm-65.33,30c.45-8.34,3.82-12.31,11.4-12.31,6.46,0,10.88,3.4,11,12.31Zm13.65,27.14a28.86,28.86,0,0,0,13.8-3.29l-.82-6a26.51,26.51,0,0,1-12.15,2.85c-9.61,0-14-4.05-14.33-15.83h28.65c.07-1,.15-2.32.15-3.44,0-13.59-7-19.88-17.62-19.88-12.31,0-18.45,7.77-18.45,21.15,0,16.73,6.07,24.44,20.77,24.44m-31.5-.9V237.21c0-10.2-5.32-15.89-15.07-15.89a17.1,17.1,0,0,0-12.53,4.94l-.15-.07.07-6v-13l-7,.45v59.16h7V233c1.8-2.85,5.86-5.1,10.51-5.1,6.9,0,10.13,3.3,10.13,9.3v29.62Zm-46.43-42.51a28.61,28.61,0,0,0-11-2.18c-13.34,0-19.19,7.62-19.19,22.4,0,16.1,6.45,23.27,19,23.27a21.15,21.15,0,0,0,11.55-3.07l-.53-5.8a18.51,18.51,0,0,1-9.52,2.5c-8.55,0-13.13-4.55-13.13-16.9,0-11.32,3.6-15.88,13.28-15.88a22.82,22.82,0,0,1,9.07,2Zm-42.45-13.51c0-2.47-1.49-3.82-4.57-3.82s-4.57,1.35-4.57,3.82c0,2.85,1.5,3.82,4.57,3.82s4.57-1.19,4.57-3.82m-1,56V222.14l-7.11.37v44.32Zm-24.37,0V207.22l-7.12.45v59.16Zm-18.82-39.15v-5.54h-11V210.59l-5.54.6-1.35,10.95h-6.45v5.54H637v27.08c0,7.81,4,12.07,11.62,12.07a15.6,15.6,0,0,0,6.23-1.12l-.45-5.38a11.39,11.39,0,0,1-3.75.59c-4,0-6.53-1.84-6.53-6.38V227.68ZM614.2,254.16c0,3.23-5,6.83-10.58,6.83-5.17,0-9-2.09-9-8.21,0-5.11,3.23-8,10.66-8,4.5,0,7.8.94,8.92,1.59Zm1.65,12.67h5.4V238c0-11.78-4.42-16.73-16.2-16.73a34.43,34.43,0,0,0-14.4,2.92l.68,5.93a27.74,27.74,0,0,1,12.52-2.71c7.28,0,10.43,2.48,10.43,9.54v4.42A32.13,32.13,0,0,0,604,239.62c-10.65,0-16,5.16-16,13.56,0,9.39,5.55,13.65,13.72,13.65,5.78,0,10.66-2.39,13.28-6.2l.23.08Zm-46.12-12.67c0,3.23-5,6.83-10.58,6.83-5.18,0-9-2.09-9-8.21,0-5.11,3.22-8,10.65-8,4.5,0,7.8.94,8.93,1.59Zm1.65,12.67h5.39V238c0-11.78-4.42-16.73-16.19-16.73a34.43,34.43,0,0,0-14.4,2.92l.67,5.93a27.77,27.77,0,0,1,12.52-2.71c7.28,0,10.43,2.48,10.43,9.54v4.42a32.07,32.07,0,0,0-10.27-1.72c-10.66,0-16,5.16-16,13.56,0,9.39,5.54,13.65,13.72,13.65,5.78,0,10.65-2.39,13.28-6.2l.22.08Zm-35.63-39.15v-5.54h-11V210.59l-5.54.6-1.35,10.95h-6.45v5.54h6.22v27.08c0,7.81,4,12.07,11.62,12.07a15.55,15.55,0,0,0,6.22-1.12l-.45-5.38a11.35,11.35,0,0,1-3.75.59c-4,0-6.52-1.84-6.52-6.38V227.68ZM505,250.79c0-19.28-27.83-13.58-27.83-25.8,0-4.43,3-8.33,11.48-8.33a35.93,35.93,0,0,1,13.43,2.7l1-6.67a35.14,35.14,0,0,0-14.84-3c-12.83,0-18.52,6.89-18.52,15.75,0,18.68,27.82,13.12,27.82,25.88,0,6-3.9,9.6-11.85,9.6a28.33,28.33,0,0,1-15.23-4.28l-1.19,7a32.42,32.42,0,0,0,16.49,4.26c12.38,0,19.2-6.51,19.2-17.09"/><path class="cls-2" d="M1019.52,114.8v-9H1009V94.5l-9.52.84-2,10.41h-5.86v9h5.31v24c0,8.85,4.61,14.31,14.06,14.31a23,23,0,0,0,8.12-1.32l-.7-8.81a13.23,13.23,0,0,1-3.75.53c-3.75,0-5.63-1.52-5.63-5.09V114.8Zm-33.73,0v-9H975.24V94.5l-9.52.84-2,10.41h-5.86v9h5.31v24c0,8.85,4.61,14.31,14.05,14.31a23.1,23.1,0,0,0,8.13-1.32l-.71-8.81a13.18,13.18,0,0,1-3.75.53c-3.75,0-5.62-1.52-5.62-5.09V114.8Zm-61.48,9.78c.55-6.88,2.81-9.62,8.68-9.62,5.08,0,8.2,2.66,8.36,9.62Zm11.33,29.36a38.71,38.71,0,0,0,15.47-3l-1.33-9.76a34.67,34.67,0,0,1-12.65,2.34c-8.13,0-12-3-12.59-10.87h27.58a43.61,43.61,0,0,0,.31-5.69c0-15-7.41-22-19.52-22-14.22,0-20.86,8.82-20.86,23.9,0,16.57,7.26,25.15,23.59,25.15m-32.27-.86V122.93c0-11.8-6.32-18.12-16.32-18.12a19.77,19.77,0,0,0-13,4.69l-1.8-4.06-8.74.54v47.1h12.18v-33.9c1.64-2.27,4.92-3.6,8-3.6,5,0,7.66,2.11,7.66,7.35v30.15ZM851.5,95.51c0-3.43-2.11-5.23-6.87-5.23s-7,1.87-7,5.23c0,3.83,2.26,5.15,7,5.15s6.87-1.72,6.87-5.15m-.71,57.57V105.75l-12.41.54v46.79ZM815.34,129.5c0,12.26-3.29,14.77-8.76,14.77a9.47,9.47,0,0,1-8.29-4.07V119.49a9.7,9.7,0,0,1,8.21-4c5.79,0,8.84,2.18,8.84,14m12.49-.24c0-17.34-6.87-24.37-17.81-24.37a17.15,17.15,0,0,0-11.65,4.22l-.23-.16.15-6.25v-11l-12.09.54v60.85h8.19l1.56-3.9A17.59,17.59,0,0,0,808.54,154c12.1,0,19.29-7.41,19.29-24.76ZM763,138.71c0,2.43-3.75,4.77-7.89,4.77s-6.73-1.54-6.73-5.86c0-3.89,2.51-5.86,7.9-5.86a20.49,20.49,0,0,1,6.72,1Zm2.73,14.37H775V123.8c0-13-4.84-19-18.82-19a40.81,40.81,0,0,0-16.25,3.13l1,9.68A30.78,30.78,0,0,1,754,115c6.49,0,9,2.19,9,7v2.73a30.49,30.49,0,0,0-9.07-1.32c-10.78,0-16.86,6-16.86,14.75,0,9.85,5.69,14.92,14.68,14.92,5.39,0,9.92-2,12.81-5.38l.24.08ZM702.28,91.69l-12.1.54v60.85h12.1V132.7h6.17l10.08,20.38H732.2l-13.35-25.85,12.89-21.48H718.3l-9.85,17.11h-6.17Zm-22.57,22.49v-8.43H645.65l-.39,10.07h20.39l.08.15L662,120.9l-17.35,23.68v8.5H680.1l.31-10.06H658.69l-.07-.24,3.75-4.84Zm-44.3,38.9V122.93c0-11.8-6.32-18.12-16.32-18.12A19.75,19.75,0,0,0,606,109.5l-1.8-4.06-8.74.54v47.1h12.17v-33.9c1.65-2.27,4.93-3.6,8-3.6,5,0,7.66,2.11,7.66,7.35v30.15ZM577.05,95.43c0-3.35-1.48-5.15-5.07-5.15s-5.16,1.8-5.16,5.15c0,3.67,1.72,5.08,5.16,5.08s5.07-1.72,5.07-5.08m-14.21,0c0-3.35-1.57-5.15-5.16-5.15-3.44,0-5.08,1.8-5.08,5.15,0,3.67,1.64,5.08,5.08,5.08,3.59,0,5.16-1.72,5.16-5.08m21.94,10.32h-12.1v30.39c0,4.84-2.5,7.11-7.81,7.11s-7.82-2.42-7.82-7.11V105.75H545v30.63c0,11.24,6.48,17.56,19.92,17.56s19.91-6.08,19.91-17.56ZM472.45,94.5v58.58h11.63V123.32L484,117l.16-.08,2.19,5.94,11.95,30.22h8.76l12-30.3,2.19-5.94.23.08-.15,6.33v29.83h12V94.5H518.86l-13.68,34.21L503,134.57h-.23l-2.19-5.86L487,94.5Z"/><rect class="cls-3" width="1612.2" height="472.44"/></svg>