<?xml version="1.0" encoding="utf-8"?>
<!-- Generator: Adobe Illustrator 23.1.1, SVG Export Plug-In . SVG Version: 6.00 Build 0)  -->
<svg version="1.1" baseProfile="tiny" id="SMB_x5F_MK"
	 xmlns="http://www.w3.org/2000/svg" xmlns:xlink="http://www.w3.org/1999/xlink" x="0px" y="0px" viewBox="0 0 1612.2 472.44"
	 xml:space="preserve">
<g>
	<path fill="#010202" d="M94.49,94.49v204.64c21.62-26.46,40.27-37.46,48.1-40.94c0.73-0.32,0.76-0.83,0.72-1.04
		c-0.06-0.38-0.43-0.76-1.37-0.74c-3.85,0.05-11.81,2.21-17.01,4.13c-1.21,0.45-1.4-0.36-0.91-1.28c1.12-2.09,6.21-6.88,21.42-13.02
		c25.12-10.14,51.09-9.03,62.97-3.07c5.27,2.65,7.48,7.92,8.12,9.82c0.08,0.24-0.03,0.37-0.21,0.37
		c-18.45-0.21-26.76,0.73-32.27,2.41c-1.64,0.5-1.8,1.72-0.36,2.82c2.6,1.98,10.69,4.05,13.92,4.59c0.97,0.16,1.49-0.16,2.09-0.84
		c0.69-0.79,1.57-1.92,2.34-2.67c0.6-0.59,0.91-0.65,2.05-0.73c1.71-0.12,5.65-0.18,9.12-0.12c16.16,0.29,34.2,4.28,34.2,27.17
		c0,8.23-3.37,16.27-4.96,18.73c-1.04,1.62-2.7,1.54-2.6-0.87c0.43-11.24-1.38-15.85-19.16-15.85c-8.99,0-23.19,1.3-29.56,4.29
		c-2.36,1.11-2.59,3.14-0.2,2.93c3.54-0.31,17.43-1.26,27.26-1.26c6.5,0,11.62,0.65,13.47,3.24c0.45,0.63,0.54,1.8-1.02,1.58
		c-0.63-0.09-2.27-0.28-4.57-0.28c-20.47,0-40.47,12.07-40.47,32.96c0,33.21,48.88,46.5,110,46.5c49.22,0,82.36-10.57,82.36-10.57
		l0-272.9H94.49z"/>
	<path fill="#010202" d="M1517.71,266.83v-29.55c0-10.65-5.77-15.97-15.22-15.97c-5.03,0-9.91,1.95-12.98,5.32h-0.23l-1.2-4.72
		l-5.09,0.38v44.54h7.12v-33.9c2.1-3.22,6.6-5.02,10.43-5.02c6.6,0,10.13,2.77,10.13,9.38v29.55H1517.71z M1468.13,210.81
		c0-2.47-1.5-3.82-4.57-3.82s-4.57,1.35-4.57,3.82c0,2.85,1.5,3.82,4.57,3.82S1468.13,213.44,1468.13,210.81 M1467.08,266.83v-44.69
		l-7.12,0.37v44.32H1467.08z M1442.71,266.83v-59.62l-7.12,0.45v59.17H1442.71z M1406.41,266.83v-22.25
		c0-9.43,5.62-15.25,12.6-15.25c1.57,0,3.07,0.15,4.42,0.59l0.45-7.18c-1.2-0.37-2.78-0.6-4.43-0.6c-6.07,0-10.95,3.75-13.72,10.14
		h-0.15l-0.6-9.54l-5.69,0.38v43.72H1406.41z M1359.01,240.59c0.45-8.35,3.83-12.31,11.4-12.31c6.45,0,10.88,3.4,11.03,12.31
		H1359.01z M1372.66,267.73c5.4,0,10.05-1.27,13.8-3.29l-0.82-6c-3.82,1.88-7.65,2.85-12.15,2.85c-9.6,0-13.96-4.05-14.33-15.83
		h28.65c0.08-0.97,0.15-2.32,0.15-3.44c0-13.59-6.97-19.87-17.62-19.87c-12.3,0-18.45,7.77-18.45,21.15
		C1351.89,260.02,1357.96,267.73,1372.66,267.73 M1332.54,225.96c0,5.93-2.93,8.78-9.08,8.78h-13.5v-17.41h12.98
		C1329.54,217.33,1332.54,219.74,1332.54,225.96 M1334.49,250.26c0,7.43-3.75,9.98-10.35,9.98h-14.18v-19.51h13.88
		C1331.12,240.73,1334.49,243.74,1334.49,250.26 M1342.13,250.86c0-7.88-3.82-12.15-10.27-13.65v-0.15
		c4.65-1.57,8.02-5.47,8.02-12.45c0-9.23-5.62-14.02-16.72-14.02h-20.62v56.24h21.52C1337.04,266.83,1342.13,260.84,1342.13,250.86
		 M1264.21,222.14h-7.04v29.85c0,6.08-3.53,9.15-10.28,9.15c-6.9,0-10.35-3.15-10.35-9.15v-29.85h-7.04v30
		c0,9.82,5.62,15.52,17.32,15.52c11.78,0,17.4-5.62,17.4-15.52V222.14z M1217.87,227.31v-5.17h-30.52l-0.23,6.14h22.5l0.08,0.15
		l-3.53,4.8l-19.88,28.51v5.09h31.8l0.22-6.14h-23.7l-0.08-0.22l3.53-4.73L1217.87,227.31z M1150.74,266.83v-29.55
		c0-10.65-5.77-15.97-15.22-15.97c-5.03,0-9.9,1.95-12.98,5.32h-0.23l-1.2-4.72l-5.09,0.38v44.54h7.12v-33.9
		c2.1-3.22,6.6-5.02,10.43-5.02c6.6,0,10.13,2.77,10.13,9.38v29.55H1150.74z M1075.74,240.59c0.45-8.35,3.83-12.31,11.4-12.31
		c6.45,0,10.88,3.4,11.03,12.31H1075.74z M1089.39,267.73c5.4,0,10.05-1.27,13.8-3.29l-0.82-6c-3.82,1.88-7.65,2.85-12.15,2.85
		c-9.61,0-13.96-4.05-14.33-15.83h28.65c0.07-0.97,0.15-2.32,0.15-3.44c0-13.59-6.96-19.87-17.62-19.87
		c-12.3,0-18.45,7.77-18.45,21.15C1068.62,260.02,1074.69,267.73,1089.39,267.73 M1030.89,240.59c0.45-8.35,3.83-12.31,11.4-12.31
		c6.45,0,10.88,3.4,11.03,12.31H1030.89z M1044.55,267.73c5.4,0,10.05-1.27,13.8-3.29l-0.82-6c-3.82,1.88-7.65,2.85-12.15,2.85
		c-9.6,0-13.96-4.05-14.33-15.83h28.65c0.08-0.97,0.15-2.32,0.15-3.44c0-13.59-6.96-19.87-17.62-19.87
		c-12.3,0-18.45,7.77-18.45,21.15C1023.77,260.02,1029.84,267.73,1044.55,267.73 M1015.29,253.89c0-15.26-22.73-10.42-22.73-19.74
		c0-3.6,3.38-5.87,8.71-5.87c3.6,0,7.88,0.81,11.62,2.35l0.6-5.94c-3.59-1.65-7.72-2.55-12.07-2.55c-10.28,0-15.6,4.94-15.6,12.38
		c0,14.75,22.88,10.13,22.88,20.03c0,4.11-2.7,7.19-9.23,7.19c-4.28,0-9.38-1.32-12.75-3.81l-0.9,6.06
		c3.45,2.47,8.39,3.74,13.72,3.74C1010.57,267.73,1015.29,262.12,1015.29,253.89 M974.57,222.14h-7.04v29.85
		c0,6.08-3.53,9.15-10.28,9.15c-6.9,0-10.36-3.15-10.36-9.15v-29.85h-7.04v30c0,9.82,5.62,15.52,17.32,15.52
		c11.78,0,17.39-5.62,17.39-15.52V222.14z M871.45,210.59v56.24h6.82v-36.89l-0.08-6.07l0.15-0.07l2.17,5.7l15.15,37.34h5.4
		l15.23-37.64l2.18-5.7l0.22,0.08l-0.15,6.07v37.19h6.97v-56.24h-8.62l-16.13,39.74l-2.1,5.62h-0.23l-2.17-5.62l-16.13-39.74H871.45
		z M806.12,240.59c0.45-8.35,3.83-12.31,11.4-12.31c6.45,0,10.88,3.4,11.03,12.31H806.12z M819.77,267.73
		c5.4,0,10.05-1.27,13.8-3.29l-0.82-6c-3.82,1.88-7.65,2.85-12.15,2.85c-9.61,0-13.96-4.05-14.33-15.83h28.65
		c0.07-0.97,0.15-2.32,0.15-3.44c0-13.59-6.96-19.87-17.62-19.87c-12.3,0-18.44,7.77-18.44,21.15
		C799,260.02,805.07,267.73,819.77,267.73 M788.27,266.83v-29.62c0-10.2-5.32-15.89-15.07-15.89c-4.73,0-9.3,1.57-12.53,4.94
		l-0.15-0.07l0.08-5.99v-12.97l-7.04,0.45v59.17h7.04v-33.82c1.8-2.85,5.85-5.1,10.5-5.1c6.9,0,10.13,3.3,10.13,9.3v29.62H788.27z
		 M741.84,224.32c-2.93-1.27-6.98-2.17-10.95-2.17c-13.35,0-19.19,7.62-19.19,22.39c0,16.1,6.44,23.27,18.96,23.27
		c4.73,0,8.93-1.27,11.55-3.07l-0.53-5.79c-2.7,1.62-6,2.5-9.52,2.5c-8.55,0-13.12-4.56-13.12-16.91c0-11.32,3.6-15.88,13.27-15.88
		c3.23,0,6.45,0.81,9.08,1.98L741.84,224.32z M699.39,210.81c0-2.47-1.5-3.82-4.57-3.82c-3.07,0-4.57,1.35-4.57,3.82
		c0,2.85,1.5,3.82,4.57,3.82C697.9,214.63,699.39,213.44,699.39,210.81 M698.34,266.83v-44.69l-7.12,0.37v44.32H698.34z
		 M673.97,266.83v-59.62l-7.12,0.45v59.17H673.97z M655.15,227.68v-5.54h-11.02v-11.55l-5.54,0.59l-1.35,10.96h-6.45v5.54H637v27.07
		c0,7.81,3.97,12.08,11.62,12.08c2.4,0,4.88-0.45,6.23-1.12l-0.45-5.38c-0.9,0.37-2.48,0.59-3.75,0.59c-4.05,0-6.52-1.83-6.52-6.38
		v-26.85H655.15z M614.2,254.16c0,3.23-5.03,6.83-10.58,6.83c-5.18,0-9-2.09-9-8.21c0-5.12,3.23-8,10.65-8c4.5,0,7.8,0.94,8.93,1.59
		V254.16z M615.85,266.83h5.39v-28.87c0-11.78-4.42-16.72-16.19-16.72c-5.33,0-10.13,0.97-14.4,2.92l0.67,5.92
		c3.97-1.88,7.8-2.7,12.52-2.7c7.28,0,10.43,2.48,10.43,9.53v4.42c-2.78-0.97-6.45-1.72-10.28-1.72c-10.65,0-16.04,5.17-16.04,13.57
		c0,9.38,5.54,13.65,13.72,13.65c5.78,0,10.65-2.4,13.28-6.2l0.23,0.07L615.85,266.83z M569.73,254.16c0,3.23-5.03,6.83-10.58,6.83
		c-5.18,0-9-2.09-9-8.21c0-5.12,3.23-8,10.66-8c4.5,0,7.8,0.94,8.93,1.59V254.16z M571.38,266.83h5.39v-28.87
		c0-11.78-4.42-16.72-16.19-16.72c-5.33,0-10.13,0.97-14.4,2.92l0.67,5.92c3.97-1.88,7.8-2.7,12.52-2.7
		c7.28,0,10.43,2.48,10.43,9.53v4.42c-2.78-0.97-6.45-1.72-10.28-1.72c-10.65,0-16.04,5.17-16.04,13.57
		c0,9.38,5.54,13.65,13.72,13.65c5.78,0,10.65-2.4,13.28-6.2l0.22,0.07L571.38,266.83z M535.75,227.68v-5.54h-11.02v-11.55
		l-5.54,0.59l-1.35,10.96h-6.45v5.54h6.22v27.07c0,7.81,3.97,12.08,11.62,12.08c2.4,0,4.88-0.45,6.23-1.12l-0.45-5.38
		c-0.9,0.37-2.48,0.59-3.75,0.59c-4.05,0-6.52-1.83-6.52-6.38v-26.85H535.75z M505.01,250.79c0-19.28-27.83-13.58-27.83-25.81
		c0-4.43,3-8.33,11.48-8.33c4.73,0,9,0.98,13.42,2.7l1.05-6.67c-4.05-1.95-9.37-3-14.85-3c-12.83,0-18.52,6.89-18.52,15.74
		c0,18.68,27.83,13.13,27.83,25.88c0,6-3.9,9.6-11.86,9.6c-5.78,0-10.65-1.5-15.22-4.28l-1.2,6.97c4.5,2.62,10.04,4.27,16.5,4.27
		C498.19,267.88,505.01,261.37,505.01,250.79"/>
	<path fill="#010202" d="M1019.52,114.8v-9.05h-10.55V94.5l-9.52,0.84l-2.03,10.41h-5.86v9.05h5.31v23.97
		c0,8.85,4.61,14.32,14.05,14.32c3.36,0,6.48-0.62,8.12-1.33l-0.7-8.8c-0.86,0.3-2.5,0.53-3.75,0.53c-3.75,0-5.62-1.52-5.62-5.1
		V114.8H1019.52z M985.79,114.8v-9.05h-10.55V94.5l-9.52,0.84l-2.03,10.41h-5.86v9.05h5.31v23.97c0,8.85,4.61,14.32,14.05,14.32
		c3.36,0,6.49-0.62,8.12-1.33l-0.7-8.8c-0.86,0.3-2.5,0.53-3.75,0.53c-3.75,0-5.62-1.52-5.62-5.1V114.8H985.79z M924.31,124.58
		c0.55-6.88,2.81-9.62,8.68-9.62c5.08,0,8.21,2.66,8.36,9.62H924.31z M935.64,153.94c6.02,0,11.48-1.25,15.46-3.04l-1.33-9.76
		c-4.06,1.56-8.2,2.35-12.65,2.35c-8.13,0-11.96-2.97-12.59-10.87h27.58c0.23-1.64,0.31-3.9,0.31-5.7c0-15-7.42-22.03-19.53-22.03
		c-14.22,0-20.86,8.82-20.86,23.9C912.05,145.36,919.31,153.94,935.64,153.94 M903.37,153.08v-30.16c0-11.79-6.32-18.11-16.32-18.11
		c-4.92,0-9.54,1.64-13.05,4.68l-1.8-4.06l-8.74,0.55v47.1h12.18v-33.91c1.64-2.27,4.92-3.59,7.97-3.59c5,0,7.66,2.11,7.66,7.34
		v30.16H903.37z M851.5,95.51c0-3.44-2.11-5.23-6.87-5.23c-4.68,0-6.95,1.87-6.95,5.23c0,3.82,2.26,5.15,6.95,5.15
		C849.39,100.66,851.5,98.94,851.5,95.51 M850.79,153.08v-47.33l-12.41,0.54v46.79H850.79z M815.34,129.5
		c0,12.27-3.28,14.77-8.76,14.77c-4.07,0-6.8-1.8-8.29-4.06v-20.71c1.72-2.5,4.69-3.99,8.21-3.99
		C812.29,115.51,815.34,117.69,815.34,129.5 M827.83,129.26c0-17.34-6.87-24.36-17.81-24.36c-4.3,0-8.44,1.33-11.65,4.21l-0.23-0.16
		l0.16-6.25V91.69l-12.1,0.55v60.85h8.2l1.56-3.91c2.89,2.89,7.27,4.84,12.58,4.84C820.64,154.02,827.83,146.61,827.83,129.26
		L827.83,129.26z M762.99,138.71c0,2.43-3.75,4.77-7.9,4.77c-3.99,0-6.72-1.54-6.72-5.86c0-3.89,2.5-5.86,7.9-5.86
		c3.21,0,5.55,0.51,6.72,0.95V138.71z M765.72,153.08h9.29V123.8c0-12.97-4.84-18.98-18.82-18.98c-6.1,0-11.49,1.09-16.25,3.12
		l1.01,9.68c4.37-1.8,7.81-2.58,13.05-2.58c6.49,0,8.99,2.19,8.99,6.96v2.73c-2.5-0.78-5.55-1.33-9.07-1.33
		c-10.78,0-16.87,6.01-16.87,14.76c0,9.85,5.7,14.92,14.68,14.92c5.39,0,9.93-1.95,12.82-5.39l0.23,0.08L765.72,153.08z
		 M702.28,91.69l-12.1,0.55v60.85h12.1V132.7h6.17l10.08,20.39h13.67l-13.36-25.85l12.89-21.48H718.3l-9.84,17.11h-6.17V91.69z
		 M679.71,114.18v-8.43h-34.06l-0.39,10.07h20.39l0.08,0.16l-3.75,4.92l-17.34,23.68v8.51h35.47l0.31-10.07h-21.72l-0.08-0.24
		l3.75-4.84L679.71,114.18z M635.41,153.08v-30.16c0-11.79-6.32-18.11-16.32-18.11c-4.93,0-9.54,1.64-13.05,4.68l-1.8-4.06
		l-8.74,0.55v47.1h12.18v-33.91c1.64-2.27,4.92-3.59,7.97-3.59c5,0,7.66,2.11,7.66,7.34v30.16H635.41z M577.05,95.43
		c0-3.36-1.48-5.15-5.08-5.15c-3.44,0-5.16,1.79-5.16,5.15c0,3.67,1.72,5.07,5.16,5.07C575.57,100.51,577.05,98.79,577.05,95.43
		 M562.84,95.43c0-3.36-1.56-5.15-5.16-5.15c-3.44,0-5.08,1.79-5.08,5.15c0,3.67,1.64,5.07,5.08,5.07
		C561.27,100.51,562.84,98.79,562.84,95.43 M584.78,105.75h-12.1v30.39c0,4.84-2.5,7.11-7.82,7.11s-7.82-2.42-7.82-7.11v-30.39
		h-12.1v30.62c0,11.25,6.48,17.57,19.92,17.57s19.92-6.09,19.92-17.57V105.75z M472.45,94.5v58.58h11.63v-29.76L484,117l0.16-0.08
		l2.19,5.94l11.96,30.23h8.75l12.03-30.31l2.19-5.94l0.23,0.08l-0.16,6.33v29.84h12.02V94.5h-14.52l-13.67,34.21l-2.19,5.86h-0.23
		l-2.19-5.86l-13.6-34.21H472.45z"/>
</g>
</svg>
